<?xml version="1.0" encoding="UTF-8" standalone="no"?>
<!-- Created with Inkscape (http://www.inkscape.org/) -->
<svg
   xmlns:dc="http://purl.org/dc/elements/1.1/"
   xmlns:cc="http://creativecommons.org/ns#"
   xmlns:rdf="http://www.w3.org/1999/02/22-rdf-syntax-ns#"
   xmlns:svg="http://www.w3.org/2000/svg"
   xmlns="http://www.w3.org/2000/svg"
   xmlns:xlink="http://www.w3.org/1999/xlink"
   xmlns:sodipodi="http://sodipodi.sourceforge.net/DTD/sodipodi-0.dtd"
   xmlns:inkscape="http://www.inkscape.org/namespaces/inkscape"
   width="16"
   height="16"
   id="svg3157"
   sodipodi:version="0.32"
   inkscape:version="0.46"
   version="1.0"
   sodipodi:docname="jpoff.svg"
   inkscape:output_extension="org.inkscape.output.svg.inkscape"
   inkscape:export-filename="C:\JPatchaca\jpatchaca-ui\src\main\resources\ui\swing\tray\jpoff.png"
   inkscape:export-xdpi="90"
   inkscape:export-ydpi="90">
  <defs
     id="defs3159">
    <linearGradient
       id="linearGradient4333">
      <stop
         style="stop-color:#000000;stop-opacity:1;"
         offset="0"
         id="stop4335" />
      <stop
         style="stop-color:#000000;stop-opacity:1;"
         offset="1"
         id="stop4337" />
    </linearGradient>
    <linearGradient
       id="linearGradient3707">
      <stop
         style="stop-color:#5b5b5b;stop-opacity:1;"
         offset="0"
         id="stop3709" />
      <stop
         style="stop-color:#000000;stop-opacity:1;"
         offset="1"
         id="stop3711" />
    </linearGradient>
    <linearGradient
       id="linearGradient3699">
      <stop
         style="stop-color:#009b00;stop-opacity:1;"
         offset="0"
         id="stop3701" />
      <stop
         style="stop-color:#009900;stop-opacity:1;"
         offset="1"
         id="stop3703" />
    </linearGradient>
    <inkscape:perspective
       sodipodi:type="inkscape:persp3d"
       inkscape:vp_x="0 : 526.18109 : 1"
       inkscape:vp_y="0 : 1000 : 0"
       inkscape:vp_z="744.09448 : 526.18109 : 1"
       inkscape:persp3d-origin="372.04724 : 350.78739 : 1"
       id="perspective3165" />
    <radialGradient
       inkscape:collect="always"
       xlink:href="#linearGradient3707"
       id="radialGradient2414"
       gradientUnits="userSpaceOnUse"
       gradientTransform="matrix(4.722726,-1.4971684e-7,9.5809344e-8,3.0222468,-30.096593,-16.390623)"
       cx="8.0593748"
       cy="8.058795"
       fx="8.0593748"
       fy="8.058795"
       r="7.9999862" />
  </defs>
  <sodipodi:namedview
     id="base"
     pagecolor="#ffffff"
     bordercolor="#666666"
     borderopacity="1.0"
     inkscape:pageopacity="0.0"
     inkscape:pageshadow="2"
     inkscape:zoom="16"
     inkscape:cx="-8.151406"
     inkscape:cy="2.9740084"
     inkscape:document-units="px"
     inkscape:current-layer="layer1"
     showgrid="false"
     inkscape:window-width="1680"
     inkscape:window-height="934"
     inkscape:window-x="-4"
     inkscape:window-y="-4"
     showguides="true"
     inkscape:guide-bbox="true" />
  <metadata
     id="metadata3162">
    <rdf:RDF>
      <cc:Work
         rdf:about="">
        <dc:format>image/svg+xml</dc:format>
        <dc:type
           rdf:resource="http://purl.org/dc/dcmitype/StillImage" />
      </cc:Work>
    </rdf:RDF>
  </metadata>
  <g
     inkscape:label="Camada 1"
     inkscape:groupmode="layer"
     id="layer1">
    <path
       sodipodi:type="arc"
       style="fill:#ffff00;fill-opacity:1;stroke:#818181;stroke-width:7.27868890999999870;stroke-linecap:round;stroke-linejoin:miter;stroke-miterlimit:4;stroke-dasharray:none;stroke-dashoffset:0;stroke-opacity:1"
       id="path3188"
       sodipodi:cx="-294.28571"
       sodipodi:cy="478.07648"
       sodipodi:rx="214.28572"
       sodipodi:ry="214.28572"
       d="M -79.999985,478.07648 A 214.28572,214.28572 0 1 1 -508.57143,478.07648 A 214.28572,214.28572 0 1 1 -79.999985,478.07648 z"
       transform="matrix(3.1406789e-2,0,0,3.1153924e-2,17.208195,-6.9289165)" />
    <path
       style="fill:url(#radialGradient2414);fill-opacity:1;stroke:#000000;stroke-width:0.25887394;stroke-linecap:round;stroke-linejoin:miter;stroke-miterlimit:4;stroke-dasharray:none;stroke-dashoffset:0;stroke-opacity:1"
       d="M 2.6415994,0.31322124 L 1.0800977,1.7005398 L 2.2433844,2.9897076 C 2.2380737,2.995631 2.2329673,3.0017199 2.2276858,3.0076628 C 2.2001304,3.0386516 2.1726918,3.0696015 2.1456228,3.101028 C 2.132453,3.116328 2.1200613,3.1323184 2.1070083,3.1477155 C 2.0838397,3.1750764 2.0598248,3.2014159 2.0370355,3.2291074 C 2.0286803,3.2392522 2.0211909,3.2500487 2.0128941,3.2602324 C 1.9812148,3.2991289 1.9497007,3.3380157 1.9187702,3.3775347 C 1.8531062,3.4614652 1.7878507,3.5470102 1.725698,3.6336934 C 1.7223424,3.6383718 1.7193855,3.643381 1.7160396,3.6480497 C 1.5851492,3.8315219 1.4623904,4.0204602 1.348006,4.2154388 C 1.3267827,4.2515925 1.3058706,4.2878433 1.2852502,4.3243764 C 1.2706702,4.3501808 1.25609,4.37618 1.2418115,4.402179 C 1.2372497,4.410466 1.2330575,4.4190059 1.2285347,4.4273125 C 1.2084591,4.4641567 1.1888796,4.5014191 1.169407,4.538633 C 1.1527162,4.5705263 1.1361615,4.6022252 1.119928,4.6343909 C 1.1104932,4.6530562 1.1014572,4.6718965 1.0921683,4.6906493 C 1.0778314,4.719654 1.063903,4.7488239 1.0499356,4.7780327 C 1.0401313,4.7984975 1.0293931,4.8185049 1.0197638,4.8390766 C 0.99940623,4.8826321 0.98017678,4.9267518 0.96063603,4.9707451 C 0.93770082,5.0223737 0.91606898,5.0741189 0.89427177,5.1263506 C 0.89387299,5.1273135 0.89224861,5.1277804 0.89184983,5.1287433 C 0.87006233,5.1809749 0.84973383,5.233936 0.82910386,5.2867512 C 0.8110903,5.3328356 0.79313498,5.3790855 0.77601629,5.4255978 C 0.7643152,5.4573843 0.75231263,5.4893749 0.74102016,5.5213558 C 0.73260664,5.545215 0.72385269,5.5692104 0.71568243,5.5931768 C 0.71393164,5.5983026 0.71258933,5.6036133 0.71085808,5.6087393 C 0.69264992,5.6624395 0.67477249,5.7161205 0.6577608,5.770346 C 0.65764409,5.7707156 0.65787751,5.7711824 0.6577608,5.7715424 C 0.64805363,5.8024534 0.63929981,5.8338312 0.63000113,5.8649076 C 0.62163639,5.8928423 0.61270737,5.9206214 0.60466352,5.948702 C 0.60455652,5.9490618 0.60477053,5.9495286 0.60466352,5.9498886 C 0.59004441,6.0009044 0.57597987,6.0528734 0.56242098,6.1042976 C 0.56009635,6.1131293 0.55747993,6.1218055 0.55518453,6.1306372 C 0.54296795,6.1777137 0.53151982,6.2244595 0.52018828,6.2718863 C 0.50668788,6.3284074 0.49379044,6.3848506 0.48157386,6.4418579 C 0.47220725,6.485501 0.46362837,6.5296012 0.45503007,6.5735263 C 0.45097418,6.5942633 0.4468501,6.6149712 0.44294974,6.6357763 C 0.4336803,6.685372 0.42470276,6.7354638 0.41641566,6.7853902 C 0.40967516,6.8259598 0.4031875,6.8667042 0.39710845,6.9074877 C 0.3894925,6.9584744 0.38197397,7.0094026 0.3753793,7.0607005 C 0.36759811,7.1213748 0.36118821,7.1827397 0.35486604,7.2438515 C 0.35439907,7.248248 0.35409759,7.2526249 0.35365986,7.2570214 C 0.34792124,7.313484 0.34246469,7.3701704 0.33797094,7.426993 C 0.33737768,7.43457 0.33734844,7.4421469 0.33676489,7.4497336 C 0.33410952,7.4848173 0.33170712,7.5198524 0.32952831,7.5550722 C 0.32731067,7.5909049 0.32399387,7.6268348 0.32229173,7.6628037 C 0.32185413,7.6719563 0.32148446,7.6811674 0.32108567,7.6903298 C 0.31901386,7.7371048 0.31744797,7.7833838 0.31625162,7.8303728 C 0.31611538,7.8355765 0.31637804,7.8407413 0.31625162,7.845945 C 0.31484126,7.9058801 0.31382968,7.9663987 0.31382968,8.0266936 C 0.31382968,11.954793 3.3266215,15.188475 7.183669,15.577362 C 7.3122347,15.590328 7.44188,15.600736 7.5722353,15.607291 C 7.7026004,15.613847 7.8336269,15.616863 7.965626,15.616863 C 8.0976256,15.616863 8.2286519,15.613847 8.3590171,15.607291 C 8.4893724,15.600736 8.619008,15.590328 8.7475834,15.577362 C 12.604632,15.188466 15.617424,11.954793 15.617424,8.0266936 C 15.617424,7.9610686 15.616674,7.8955894 15.615001,7.8303728 C 15.61359,7.7753497 15.611548,7.7211241 15.608961,7.6663927 C 15.608484,7.6563938 15.608271,7.646463 15.607755,7.6364641 C 15.605226,7.5869851 15.601588,7.537263 15.598106,7.4880368 C 15.597017,7.472805 15.595655,7.457758 15.594487,7.4425555 C 15.594079,7.4373322 15.593691,7.4321967 15.593282,7.426993 C 15.588789,7.3701704 15.583331,7.313484 15.577584,7.2570214 C 15.577388,7.2550468 15.577788,7.2530043 15.577584,7.2510395 C 15.577329,7.2486078 15.57664,7.2462735 15.576387,7.2438515 C 15.570064,7.1827397 15.563655,7.1213748 15.555873,7.0607005 C 15.549279,7.0094026 15.541759,6.9584744 15.534144,6.9074877 C 15.532374,6.8955338 15.531158,6.8835117 15.52932,6.8715773 C 15.524875,6.842777 15.519604,6.8140933 15.514837,6.7853902 C 15.50655,6.7354638 15.497563,6.685372 15.488302,6.6357763 C 15.486893,6.6282577 15.486105,6.6205347 15.484675,6.6130259 C 15.482155,6.599788 15.47881,6.5867448 15.476223,6.5735263 C 15.467624,6.5296012 15.459045,6.485501 15.449679,6.4418579 C 15.437462,6.3848506 15.424555,6.3284074 15.411064,6.2718863 C 15.399732,6.2244595 15.388285,6.1777137 15.376068,6.1306372 C 15.373773,6.1218055 15.371156,6.1131293 15.368832,6.1042976 C 15.355272,6.0528734 15.341208,6.0009044 15.326589,5.9498886 C 15.325344,5.9455116 15.324236,5.9411054 15.32298,5.9367285 C 15.306903,5.8810342 15.290806,5.8255053 15.273492,5.770346 C 15.256479,5.7161205 15.238603,5.6624395 15.220395,5.6087393 C 15.218663,5.6036133 15.217321,5.5983026 15.215571,5.5931768 C 15.198802,5.5440576 15.18143,5.4946176 15.163689,5.4459458 C 15.160148,5.4362873 15.156384,5.4268624 15.152815,5.4172232 C 15.136668,5.3734441 15.119102,5.3301511 15.102149,5.2867512 C 15.081519,5.233936 15.06118,5.1809749 15.039403,5.1287433 C 15.039189,5.1282666 15.038391,5.1280235 15.038187,5.1275469 C 15.030532,5.1091928 15.023072,5.0907708 15.015271,5.0724946 C 15.000662,5.0382376 14.985712,5.0047296 14.970607,4.9707451 C 14.951076,4.9267518 14.931837,4.8826321 14.911479,4.8390766 C 14.907938,4.8314997 14.904184,4.8238934 14.900624,4.8163262 C 14.88797,4.7895392 14.874946,4.7627523 14.86201,4.7361404 C 14.850055,4.7115518 14.838014,4.6875465 14.825808,4.6631135 C 14.810575,4.6326401 14.795587,4.6023905 14.779956,4.5721507 C 14.769637,4.5521626 14.759064,4.5321745 14.748569,4.5123032 C 14.73039,4.4778808 14.711754,4.4434585 14.693069,4.4093573 C 14.684529,4.3937948 14.676359,4.3781739 14.667722,4.3626697 C 14.660583,4.3498599 14.65321,4.3371375 14.646003,4.3243764 C 14.625373,4.2878433 14.60447,4.2515925 14.583247,4.2154388 C 14.468862,4.0204602 14.346103,3.8315219 14.215203,3.6480497 C 14.211867,3.643381 14.208901,3.6383718 14.205555,3.6336934 C 14.143402,3.5470102 14.078146,3.4614652 14.012483,3.3775347 C 13.981552,3.3380157 13.950038,3.2991289 13.918348,3.2602324 C 13.914556,3.2555734 13.911297,3.2505155 13.907484,3.2458662 C 13.894703,3.2302454 13.881796,3.2147024 13.868889,3.1991886 C 13.845731,3.1713608 13.822435,3.1440875 13.798897,3.1165905 C 13.782809,3.0978184 13.766887,3.0789585 13.750624,3.0603321 C 13.729916,3.0366187 13.708868,3.0131583 13.687869,2.9897076 L 14.851146,1.7005398 L 13.289654,0.31322124 L 12.095008,1.6359068 C 12.093034,1.6346521 12.090942,1.6335724 12.088978,1.6323079 C 12.037125,1.5993252 11.984796,1.5671303 11.932108,1.5353536 C 11.892987,1.5117764 11.85341,1.4888315 11.813842,1.4659254 C 11.800488,1.4582025 11.787435,1.4496431 11.774022,1.4419884 C 11.76733,1.4381659 11.76021,1.4350144 11.753509,1.4312114 C 11.706559,1.4046092 11.659881,1.3778612 11.612328,1.3522219 C 11.566156,1.3273122 11.519079,1.303171 11.472343,1.2791949 C 11.455311,1.2704702 11.438747,1.2614732 11.421658,1.2528652 C 11.328127,1.2057692 11.233779,1.1609589 11.13808,1.1176076 C 11.124006,1.1112271 11.10997,1.1047491 11.095857,1.098456 C 11.045425,1.075978 10.994798,1.0540348 10.943801,1.032617 C 10.887747,1.0090787 10.830371,0.98542367 10.773655,0.96319844 C 10.760885,0.95818933 10.74786,0.95377347 10.735041,0.94883242 C 10.706084,0.93764682 10.677284,0.92732698 10.648163,0.91650136 C 10.620482,0.90621063 10.592721,0.89535576 10.564893,0.88537635 C 10.524529,0.87090319 10.483696,0.85609944 10.44301,0.84228772 C 10.43341,0.83901957 10.423673,0.83593618 10.414044,0.83270697 C 10.407187,0.83041157 10.400408,0.82780486 10.393541,0.82552874 C 10.356881,0.81335111 10.320631,0.80244772 10.283719,0.79081469 C 10.240494,0.77718775 10.196958,0.76421255 10.153402,0.75131511 C 10.137344,0.74656853 10.121246,0.74160807 10.105139,0.73694908 C 10.089858,0.73254293 10.074597,0.72810754 10.059278,0.72378899 C 10.003603,0.70808053 9.9477339,0.69277099 9.8915534,0.67829783 C 9.8867192,0.67706253 9.8818949,0.67594407 9.8770705,0.67470878 C 9.8745999,0.67407657 9.8722947,0.67293858 9.8698243,0.67231608 C 9.8163669,0.65871838 9.7632307,0.64649209 9.7093261,0.63400315 C 9.7009223,0.63206758 9.6923922,0.62994713 9.6839884,0.62802127 C 9.6252011,0.61461805 9.5658885,0.60176926 9.5066051,0.58971817 C 9.4569121,0.57962192 9.4070149,0.57013859 9.3569718,0.56099557 C 9.3299708,0.55606422 9.3032227,0.55126899 9.2761246,0.54662941 C 9.2277253,0.53833273 9.1788006,0.53008457 9.1301095,0.52269234 C 9.070972,0.5137148 9.0122819,0.50637121 8.9527165,0.49874556 C 8.9414824,0.49730608 8.9301704,0.49535098 8.9189264,0.49396986 C 8.8649732,0.48730713 8.8103196,0.4815491 8.756026,0.47601466 C 8.7471846,0.47510038 8.7383237,0.47448759 8.7294725,0.47361213 C 8.6711618,0.46787351 8.6131915,0.46248502 8.5545014,0.45805946 C 8.5123077,0.45485936 8.4701819,0.4521943 8.4277936,0.44967505 C 8.4152754,0.44893584 8.402913,0.44796321 8.3903853,0.44728235 C 8.3610305,0.44567752 8.3317243,0.44376137 8.3022917,0.44249696 C 8.2625296,0.44078499 8.2227577,0.44000696 8.1828302,0.43889808 C 8.1763815,0.43872301 8.1700008,0.43786709 8.163523,0.43770173 C 8.097927,0.43605794 8.0316208,0.43530903 7.965626,0.43530903 C 7.899427,0.43530903 7.8335102,0.43604824 7.7677197,0.43770173 C 7.7612321,0.43786709 7.7548904,0.43872301 7.7484125,0.43889808 C 7.7084753,0.44000696 7.668713,0.44078499 7.6289509,0.44249696 C 7.5995086,0.44376137 7.5702219,0.44567752 7.5408672,0.44728235 C 7.5284075,0.44796321 7.5158992,0.44893584 7.5034492,0.44967505 C 7.4610608,0.4521943 7.4189448,0.45485936 7.3767509,0.45805946 C 7.3183138,0.46247519 7.2598377,0.46789292 7.2017799,0.47361213 C 7.192919,0.47448759 7.1840776,0.47510038 7.1752264,0.47601466 C 7.1209327,0.4815491 7.0662694,0.48730713 7.0123259,0.49396986 C 7.0054883,0.49480637 6.9986309,0.49549693 6.991803,0.49635286 C 6.9889919,0.49671269 6.9861712,0.49719907 6.9833603,0.49754921 C 6.9817263,0.49776322 6.9801796,0.49854138 6.9785359,0.49874556 C 6.9189705,0.50637121 6.8602804,0.5137148 6.8011429,0.52269234 C 6.7524517,0.53008457 6.7035175,0.53833273 6.6551278,0.54662941 C 6.6406936,0.5491 6.6260843,0.55124958 6.611689,0.55381734 C 6.5991418,0.55603497 6.5867988,0.55870987 6.5742807,0.56099557 C 6.5242376,0.57013859 6.4743403,0.57962192 6.4246376,0.58971817 C 6.3653639,0.60176926 6.3060514,0.61461805 6.2472543,0.62802127 C 6.2388019,0.62995683 6.2303787,0.63204805 6.2219264,0.63400315 C 6.168119,0.64647256 6.1147883,0.65873779 6.0614284,0.67231608 C 6.0589676,0.67293858 6.056643,0.67407657 6.0541821,0.67470878 C 6.0493383,0.67595378 6.0445431,0.67705283 6.0396992,0.67829783 C 5.9835187,0.69277099 5.9276493,0.70808053 5.8719744,0.72378899 C 5.8405285,0.73264994 5.8091312,0.7420555 5.7778506,0.75131511 C 5.734295,0.76421255 5.6907493,0.77718775 5.6475244,0.79081469 C 5.6108552,0.80237953 5.5741376,0.813429 5.5377115,0.82552874 C 5.530796,0.82782427 5.5241041,0.83040187 5.5171983,0.83270697 C 5.507569,0.83593618 5.4978424,0.83901957 5.4882423,0.84228772 C 5.4475269,0.85610914 5.4067434,0.87089349 5.3663588,0.88537635 C 5.3383852,0.89540441 5.3109173,0.90616198 5.2830897,0.91650136 C 5.2541143,0.92726863 5.2250221,0.93770518 5.1962121,0.94883242 C 5.1833439,0.95379288 5.1704172,0.95816992 5.1575976,0.96319844 C 5.1098597,0.98190269 5.0624621,1.0010251 5.0152105,1.0206435 C 5.0059703,1.0244855 4.9966717,1.0287556 4.9874509,1.032617 C 4.9364546,1.0540348 4.8858279,1.075978 4.8353957,1.098456 C 4.8212435,1.1047686 4.8072859,1.1112173 4.7931727,1.1176076 C 4.7854887,1.1210898 4.7779117,1.1248734 4.7702472,1.1283847 C 4.7297069,1.146904 4.6897112,1.1654331 4.6495698,1.1846333 C 4.6029017,1.2069558 4.5557182,1.2296382 4.5095948,1.2528652 C 4.4926123,1.2614148 4.4758242,1.2705286 4.4589098,1.2791949 C 4.4244486,1.2968681 4.3904834,1.3148818 4.3563432,1.3330607 C 4.3440196,1.3396261 4.3312292,1.3455982 4.3189252,1.3522219 C 4.2713719,1.3778612 4.2246942,1.4046092 4.177744,1.4312114 C 4.1574934,1.4426886 4.1375345,1.4542827 4.1174102,1.4659254 C 4.0778425,1.4888315 4.0382555,1.5117764 3.999145,1.5353536 C 3.9464562,1.5671303 3.8941274,1.5993252 3.8422751,1.6323079 C 3.8403103,1.6335724 3.8382094,1.6346521 3.8362446,1.6359068 L 2.6415994,0.31322124 z M 7.965626,1.3510256 C 11.680599,1.3510256 14.695472,4.3416215 14.695481,8.0266936 C 14.695481,11.711746 11.680599,14.702352 7.965626,14.702352 C 7.9075779,14.702352 7.8495493,14.701418 7.791861,14.699959 C 7.7341631,14.69851 7.6766305,14.696856 7.6193021,14.693968 C 4.0649938,14.515077 1.2357712,11.596583 1.2357712,8.0266936 C 1.2357712,7.9691124 1.2367245,7.9115507 1.2381835,7.8543196 C 1.3303717,4.2487524 4.3087025,1.3510256 7.965626,1.3510256 z"
       id="path4301" />
    <path
       style="fill:#ffffff;fill-opacity:0.54976304;stroke:none;stroke-width:5.92000008;stroke-linecap:round;stroke-linejoin:miter;stroke-miterlimit:4;stroke-dasharray:none;stroke-dashoffset:0;stroke-opacity:1"
       d="M 8.0206199,1.4057375 C 4.3056483,1.4057375 1.2907653,4.3963431 1.2907653,8.0814056 C 1.2907653,8.0953924 1.2906874,8.1093305 1.2907653,8.1232979 C 2.5220309,8.7162192 3.9790013,9.0593527 5.5396083,9.0593527 C 9.4466798,9.0593527 12.702374,6.9092579 13.400156,4.0702602 C 12.171654,2.4523346 10.218346,1.4057375 8.0206199,1.4057375 z"
       id="path4269" />
    <rect
       style="fill:#000000;fill-opacity:1"
       id="rect3170"
       width="1.3374019"
       height="0.85107392"
       x="1.707194"
       y="8.2118092" />
    <rect
       y="8.2118092"
       x="12.831945"
       height="0.85107392"
       width="1.3374019"
       id="rect3174"
       style="fill:#000000;fill-opacity:1" />
    <rect
       style="fill:#000000;fill-opacity:1"
       id="rect3176"
       width="1.3374019"
       height="0.85107392"
       x="13.014297"
       y="-8.6981583"
       transform="matrix(0,1,-1,0,0,0)" />
    <rect
       transform="matrix(0,1,-1,0,0,0)"
       y="-8.6981583"
       x="1.5855911"
       height="0.85107392"
       width="1.3374019"
       id="rect3178"
       style="fill:#000000;fill-opacity:1" />
  </g>
</svg>
