<?xml version="1.0" encoding="UTF-8" standalone="no"?>
<!-- Created with Inkscape (http://www.inkscape.org/) -->
<svg
   xmlns:dc="http://purl.org/dc/elements/1.1/"
   xmlns:cc="http://creativecommons.org/ns#"
   xmlns:rdf="http://www.w3.org/1999/02/22-rdf-syntax-ns#"
   xmlns:svg="http://www.w3.org/2000/svg"
   xmlns="http://www.w3.org/2000/svg"
   xmlns:xlink="http://www.w3.org/1999/xlink"
   xmlns:sodipodi="http://sodipodi.sourceforge.net/DTD/sodipodi-0.dtd"
   xmlns:inkscape="http://www.inkscape.org/namespaces/inkscape"
   width="16"
   height="16"
   id="svg3157"
   sodipodi:version="0.32"
   inkscape:version="0.46"
   version="1.0"
   sodipodi:docname="jpoff.svg"
   inkscape:output_extension="org.inkscape.output.svg.inkscape"
   inkscape:export-filename="C:\Documents and Settings\lcsantos\Desktop\JPatchaca\jpon.png"
   inkscape:export-xdpi="90"
   inkscape:export-ydpi="90">
  <defs
     id="defs3159">
    <linearGradient
       inkscape:collect="always"
       id="linearGradient3187">
      <stop
         style="stop-color:#000000;stop-opacity:1;"
         offset="0"
         id="stop3189" />
      <stop
         style="stop-color:#797979;stop-opacity:1"
         offset="1"
         id="stop3191" />
    </linearGradient>
    <linearGradient
       inkscape:collect="always"
       id="linearGradient3169">
      <stop
         style="stop-color:#858585;stop-opacity:1"
         offset="0"
         id="stop3171" />
      <stop
         style="stop-color:#f8f8f8;stop-opacity:1"
         offset="1"
         id="stop3173" />
    </linearGradient>
    <linearGradient
       id="linearGradient4333">
      <stop
         style="stop-color:#000000;stop-opacity:1;"
         offset="0"
         id="stop4335" />
      <stop
         style="stop-color:#000000;stop-opacity:1;"
         offset="1"
         id="stop4337" />
    </linearGradient>
    <linearGradient
       id="linearGradient3707">
      <stop
         style="stop-color:#5b5b5b;stop-opacity:1;"
         offset="0"
         id="stop3709" />
      <stop
         style="stop-color:#000000;stop-opacity:1;"
         offset="1"
         id="stop3711" />
    </linearGradient>
    <linearGradient
       id="linearGradient3699">
      <stop
         style="stop-color:#009b00;stop-opacity:1;"
         offset="0"
         id="stop3701" />
      <stop
         style="stop-color:#009900;stop-opacity:1;"
         offset="1"
         id="stop3703" />
    </linearGradient>
    <inkscape:perspective
       sodipodi:type="inkscape:persp3d"
       inkscape:vp_x="0 : 526.18109 : 1"
       inkscape:vp_y="0 : 1000 : 0"
       inkscape:vp_z="744.09448 : 526.18109 : 1"
       inkscape:persp3d-origin="372.04724 : 350.78739 : 1"
       id="perspective3165" />
    <radialGradient
       inkscape:collect="always"
       xlink:href="#linearGradient3707"
       id="radialGradient4351"
       cx="8.0593748"
       cy="8.058795"
       fx="8.0593748"
       fy="8.058795"
       r="7.9999862"
       gradientTransform="matrix(3.6985197,-1.1724811e-7,7.5031401e-8,2.3668194,-21.592132,-11.108671)"
       gradientUnits="userSpaceOnUse" />
    <linearGradient
       inkscape:collect="always"
       xlink:href="#linearGradient3169"
       id="linearGradient3175"
       x1="8.5625"
       y1="0.93749952"
       x2="8.687499"
       y2="16"
       gradientUnits="userSpaceOnUse"
       gradientTransform="matrix(1.0190857,0,0,1.0190855,-0.1526848,-0.1526849)" />
    <linearGradient
       inkscape:collect="always"
       xlink:href="#linearGradient3187"
       id="linearGradient3193"
       x1="11.75"
       y1="2.9375"
       x2="11.749999"
       y2="16"
       gradientUnits="userSpaceOnUse"
       gradientTransform="matrix(1.0190857,0,0,1.0190855,-0.1526848,-0.1526849)" />
    <radialGradient
       inkscape:collect="always"
       xlink:href="#linearGradient3707"
       id="radialGradient3202"
       gradientUnits="userSpaceOnUse"
       gradientTransform="matrix(4.1157882,-1.3047609e-7,8.3496474e-8,2.6338449,-25.142553,-13.198075)"
       cx="8.0593748"
       cy="8.058795"
       fx="8.0593748"
       fy="8.058795"
       r="7.9999862" />
  </defs>
  <sodipodi:namedview
     id="base"
     pagecolor="#ffffff"
     bordercolor="#666666"
     borderopacity="1.0"
     inkscape:pageopacity="0.0"
     inkscape:pageshadow="2"
     inkscape:zoom="16"
     inkscape:cx="2.098594"
     inkscape:cy="2.9740084"
     inkscape:document-units="px"
     inkscape:current-layer="layer1"
     showgrid="false"
     inkscape:window-width="1680"
     inkscape:window-height="934"
     inkscape:window-x="-4"
     inkscape:window-y="-4"
     showguides="true"
     inkscape:guide-bbox="true" />
  <metadata
     id="metadata3162">
    <rdf:RDF>
      <cc:Work
         rdf:about="">
        <dc:format>image/svg+xml</dc:format>
        <dc:type
           rdf:resource="http://purl.org/dc/dcmitype/StillImage" />
      </cc:Work>
    </rdf:RDF>
  </metadata>
  <g
     inkscape:label="Camada 1"
     inkscape:groupmode="layer"
     id="layer1">
    <rect
       style="fill:url(#linearGradient3175);fill-opacity:1;stroke:url(#linearGradient3193);stroke-width:0.75514245;stroke-linecap:round;stroke-miterlimit:4;stroke-dasharray:none;stroke-opacity:0.54502366"
       id="rect2397"
       width="15.244858"
       height="15.244858"
       x="0.37757123"
       y="0.37757099" />
    <path
       sodipodi:type="arc"
       style="fill:#ffff00;fill-opacity:1;stroke:#818181;stroke-width:7.27868890999999870;stroke-linecap:round;stroke-linejoin:miter;stroke-miterlimit:4;stroke-dasharray:none;stroke-dashoffset:0;stroke-opacity:1"
       id="path3188"
       sodipodi:cx="-294.28571"
       sodipodi:cy="478.07648"
       sodipodi:rx="214.28572"
       sodipodi:ry="214.28572"
       d="M -79.999985,478.07648 A 214.28572,214.28572 0 1 1 -508.57143,478.07648 A 214.28572,214.28572 0 1 1 -79.999985,478.07648 z"
       transform="matrix(2.7370568e-2,0,0,2.7150199e-2,16.082893,-4.9523327)" />
    <path
       style="fill:url(#radialGradient3202);fill-opacity:1;stroke:#000000;stroke-width:0.22560494;stroke-linecap:round;stroke-linejoin:miter;stroke-miterlimit:4;stroke-dasharray:none;stroke-dashoffset:0;stroke-opacity:1"
       d="M 3.3883133,1.3590868 L 2.0274868,2.5681151 L 3.0412746,3.6916065 C 3.0366463,3.6967686 3.0321962,3.702075 3.0275934,3.7072542 C 3.0035793,3.7342604 2.9796669,3.7612329 2.9560767,3.7886206 C 2.9445994,3.8019543 2.9338003,3.8158897 2.9224248,3.8293081 C 2.9022337,3.8531527 2.881305,3.8761072 2.8614444,3.9002399 C 2.854163,3.909081 2.8476361,3.91849 2.8404056,3.9273649 C 2.8127975,3.9612627 2.7853334,3.9951519 2.7583779,4.0295922 C 2.7011527,4.1027364 2.6442834,4.1772877 2.5901182,4.2528308 C 2.5871939,4.256908 2.584617,4.2612735 2.5817011,4.2653422 C 2.467632,4.4252355 2.3606494,4.5898926 2.2609651,4.7598137 C 2.2424693,4.7913211 2.2242447,4.8229132 2.2062743,4.8547512 C 2.193568,4.8772394 2.1808616,4.8998973 2.1684181,4.9225551 C 2.1644425,4.9297771 2.1607891,4.9372195 2.1568475,4.9444585 C 2.139352,4.9765677 2.1222887,5.0090414 2.1053186,5.0414728 C 2.0907728,5.0692673 2.0763456,5.0968924 2.0621984,5.1249244 C 2.0539761,5.1411909 2.0461013,5.15761 2.0380062,5.1739528 C 2.0255118,5.19923 2.0133734,5.2246511 2.001201,5.2501062 C 1.9926567,5.2679409 1.9832985,5.2853772 1.9749067,5.303305 C 1.9571654,5.3412631 1.9404072,5.3797127 1.9233777,5.4180523 C 1.90339,5.4630458 1.8845381,5.5081411 1.8655422,5.5536602 C 1.8651947,5.5544994 1.863779,5.5549063 1.8634315,5.5557455 C 1.844444,5.6012646 1.826728,5.6474194 1.8087493,5.6934471 C 1.7930507,5.733609 1.7774029,5.7739151 1.7624842,5.8144499 C 1.7522869,5.8421514 1.7418268,5.8700307 1.7319856,5.8979017 C 1.7246533,5.9186946 1.7170244,5.9396063 1.7099041,5.9604926 C 1.7083783,5.9649597 1.7072085,5.9695879 1.7056998,5.9740551 C 1.6898316,6.0208541 1.6742517,6.0676363 1.6594263,6.1148931 C 1.6593245,6.1152151 1.659528,6.115622 1.6594263,6.1159357 C 1.6509666,6.1428742 1.6433378,6.1702195 1.6352341,6.1973021 C 1.6279443,6.2216468 1.6201628,6.2458559 1.6131527,6.2703277 C 1.6130595,6.2706413 1.613246,6.2710482 1.6131527,6.2713619 C 1.6004124,6.3158214 1.5881553,6.3611116 1.576339,6.4059271 C 1.5743131,6.4136238 1.5720329,6.421185 1.5700325,6.4288817 C 1.5593859,6.4699082 1.5494091,6.5106465 1.5395338,6.5519782 C 1.5277684,6.6012355 1.5165284,6.650425 1.5058819,6.7001061 C 1.497719,6.7381404 1.4902426,6.7765731 1.4827493,6.8148532 C 1.4792147,6.8329252 1.4756206,6.8509718 1.4722215,6.8691032 C 1.4641433,6.9123252 1.4563195,6.9559794 1.4490974,6.9994896 C 1.4432232,7.0348453 1.4375693,7.0703536 1.4322715,7.1058958 C 1.4256343,7.15033 1.419082,7.1947131 1.4133348,7.2394186 C 1.4065536,7.2922953 1.4009675,7.3457739 1.3954578,7.3990321 C 1.3950508,7.4028635 1.3947881,7.4066779 1.3944066,7.4105094 C 1.3894055,7.4597157 1.3846502,7.5091172 1.380734,7.5586372 C 1.380217,7.5652405 1.3801915,7.5718436 1.3796829,7.5784553 C 1.3773688,7.6090303 1.3752751,7.6395629 1.3733763,7.6702564 C 1.3714437,7.7014841 1.3685531,7.7327965 1.3670698,7.7641429 C 1.3666884,7.7721192 1.3663662,7.7801466 1.3660187,7.7881315 C 1.3642131,7.8288952 1.3628485,7.8692267 1.3618059,7.910177 C 1.3616872,7.9147119 1.3619161,7.919213 1.3618059,7.9237479 C 1.3605768,7.9759805 1.3596952,8.0287216 1.3596952,8.0812678 C 1.3596952,11.504551 3.9853002,14.322658 7.3466619,14.661568 C 7.4587052,14.672867 7.5716891,14.681938 7.685292,14.68765 C 7.7989033,14.693363 7.913091,14.695992 8.0281263,14.695992 C 8.143162,14.695992 8.2573497,14.693363 8.370961,14.68765 C 8.4845638,14.681938 8.5975394,14.672867 8.709591,14.661568 C 12.070953,14.32265 14.696558,11.504551 14.696558,8.0812678 C 14.696558,8.0240765 14.695905,7.9670123 14.694447,7.910177 C 14.693218,7.8622251 14.691438,7.8149683 14.689184,7.7672707 C 14.688768,7.7585567 14.688582,7.7499022 14.688132,7.7411883 C 14.685929,7.6980681 14.682758,7.6547359 14.679724,7.611836 C 14.678774,7.5985618 14.677587,7.5854485 14.67657,7.5721997 C 14.676214,7.5676477 14.675876,7.5631722 14.675519,7.5586372 C 14.671603,7.5091172 14.666847,7.4597157 14.661838,7.4105094 C 14.661668,7.4087886 14.662017,7.4070085 14.661838,7.4052962 C 14.661617,7.4031771 14.661016,7.4011428 14.660796,7.3990321 C 14.655285,7.3457739 14.6497,7.2922953 14.642918,7.2394186 C 14.637172,7.1947131 14.630618,7.15033 14.623981,7.1058958 C 14.622439,7.0954781 14.62138,7.0850011 14.619777,7.0746004 C 14.615903,7.0495013 14.61131,7.0245039 14.607156,6.9994896 C 14.599933,6.9559794 14.592101,6.9123252 14.584031,6.8691032 C 14.582803,6.8625508 14.582116,6.8558204 14.58087,6.8492765 C 14.578674,6.8377399 14.575758,6.8263729 14.573504,6.8148532 C 14.56601,6.7765731 14.558534,6.7381404 14.550372,6.7001061 C 14.539724,6.650425 14.528476,6.6012355 14.516719,6.5519782 C 14.506844,6.5106465 14.496867,6.4699082 14.486221,6.4288817 C 14.48422,6.421185 14.48194,6.4136238 14.479915,6.4059271 C 14.468098,6.3611116 14.455841,6.3158214 14.4431,6.2713619 C 14.442015,6.2675473 14.441049,6.2637074 14.439955,6.259893 C 14.425944,6.2113562 14.411916,6.1629636 14.396827,6.1148931 C 14.382001,6.0676363 14.366421,6.0208541 14.350554,5.9740551 C 14.349045,5.9695879 14.347875,5.9649597 14.346349,5.9604926 C 14.331736,5.9176859 14.316596,5.8745997 14.301136,5.8321829 C 14.29805,5.8237657 14.294769,5.815552 14.291659,5.8071516 C 14.277587,5.7689987 14.262278,5.7312695 14.247504,5.6934471 C 14.229526,5.6474194 14.211801,5.6012646 14.192821,5.5557455 C 14.192636,5.55533 14.19194,5.5551182 14.191762,5.5547029 C 14.185091,5.5387075 14.17859,5.522653 14.171791,5.5067255 C 14.15906,5.4768711 14.146031,5.4476693 14.132867,5.4180523 C 14.115847,5.3797127 14.09908,5.3412631 14.081338,5.303305 C 14.078252,5.2967019 14.07498,5.2900732 14.071878,5.2834785 C 14.06085,5.2601339 14.0495,5.2367895 14.038226,5.2135977 C 14.027808,5.192169 14.017314,5.1712488 14.006677,5.1499557 C 13.993402,5.1233986 13.980339,5.0970365 13.966717,5.070683 C 13.957725,5.0532636 13.948511,5.0358443 13.939364,5.0185267 C 13.923521,4.9885281 13.907281,4.9585296 13.890997,4.9288108 C 13.883554,4.9152483 13.876434,4.901635 13.868907,4.8881233 C 13.862685,4.8769597 13.85626,4.8658724 13.849979,4.8547512 C 13.832001,4.8229132 13.813784,4.7913211 13.795289,4.7598137 C 13.695603,4.5898926 13.588621,4.4252355 13.474544,4.2653422 C 13.471636,4.2612735 13.469051,4.256908 13.466135,4.2528308 C 13.41197,4.1772877 13.3551,4.1027364 13.297876,4.0295922 C 13.27092,3.9951519 13.243455,3.9612627 13.215839,3.9273649 C 13.212533,3.9233047 13.209694,3.9188968 13.206371,3.914845 C 13.195232,3.9012317 13.183984,3.8876862 13.172736,3.8741661 C 13.152554,3.8499146 13.132251,3.8261463 13.111739,3.8021831 C 13.097718,3.7858234 13.083842,3.7693873 13.06967,3.7531547 C 13.051623,3.7324888 13.033279,3.7120434 13.014979,3.6916065 L 14.028758,2.5681151 L 12.66794,1.3590868 L 11.626823,2.5117884 C 11.625103,2.5106949 11.62328,2.509754 11.621569,2.508652 C 11.576379,2.4799081 11.530776,2.4518507 11.484859,2.4241577 C 11.450765,2.4036106 11.416274,2.3836144 11.381791,2.3636521 C 11.370154,2.3569216 11.358778,2.3494623 11.347089,2.3427913 C 11.341257,2.33946 11.335052,2.3367136 11.329212,2.3333993 C 11.288296,2.3102159 11.247616,2.2869053 11.206175,2.2645611 C 11.165937,2.2428526 11.12491,2.2218139 11.08418,2.2009191 C 11.069337,2.1933157 11.054902,2.1854748 11.040009,2.1779731 C 10.958498,2.1369296 10.876275,2.0978781 10.792875,2.060098 C 10.780609,2.0545375 10.768377,2.048892 10.756078,2.0434077 C 10.712127,2.0238184 10.668006,2.0046953 10.623563,1.9860299 C 10.574713,1.9655166 10.524711,1.9449017 10.475284,1.9255327 C 10.464154,1.9211673 10.452803,1.917319 10.441632,1.9130129 C 10.416396,1.9032648 10.391298,1.8942712 10.365919,1.8848368 C 10.341795,1.8758686 10.317602,1.8664088 10.293351,1.8577118 C 10.258173,1.8450987 10.222589,1.8321974 10.187131,1.8201607 C 10.178765,1.8173126 10.170279,1.8146254 10.161888,1.8118112 C 10.155912,1.8098108 10.150004,1.8075391 10.144019,1.8055555 C 10.112071,1.7949429 10.080479,1.7854407 10.048311,1.7753027 C 10.010641,1.763427 9.9726999,1.7521193 9.9347418,1.7408794 C 9.9207471,1.7367428 9.9067183,1.7324198 9.8926812,1.7283596 C 9.8793645,1.7245197 9.8660647,1.7206543 9.8527142,1.7168908 C 9.8041944,1.7032011 9.755505,1.689859 9.7065445,1.6772459 C 9.7023316,1.6761693 9.6981272,1.6751946 9.6939229,1.6741181 C 9.6917698,1.6735671 9.6897608,1.6725754 9.6876079,1.6720329 C 9.6410205,1.6601827 9.5947131,1.6495276 9.547736,1.6386437 C 9.5404122,1.6369569 9.5329783,1.6351089 9.5256545,1.6334306 C 9.4744223,1.6217498 9.4227322,1.6105523 9.3710675,1.60005 C 9.3277608,1.5912512 9.2842761,1.5829866 9.2406642,1.5750186 C 9.2171333,1.570721 9.1938227,1.566542 9.1702071,1.5624987 C 9.1280278,1.5552683 9.0853906,1.5480801 9.042957,1.5416379 C 8.9914195,1.5338141 8.940272,1.5274143 8.8883615,1.5207686 C 8.8785712,1.5195141 8.8687129,1.5178103 8.858914,1.5166067 C 8.8118945,1.5108002 8.7642647,1.5057822 8.7169486,1.500959 C 8.7092434,1.5001622 8.7015213,1.4996282 8.6938076,1.4988652 C 8.6429907,1.4938641 8.5924704,1.4891681 8.5413228,1.4853113 C 8.5045516,1.4825224 8.4678395,1.4801999 8.4308988,1.4780044 C 8.4199894,1.4773602 8.4092157,1.4765125 8.3982979,1.4759192 C 8.3727156,1.4745206 8.3471757,1.4728507 8.3215257,1.4717488 C 8.2868736,1.4702568 8.2522129,1.4695788 8.2174166,1.4686124 C 8.2117967,1.4684598 8.206236,1.4677139 8.2005907,1.4675698 C 8.1434248,1.4661373 8.0856398,1.4654846 8.0281263,1.4654846 C 7.9704348,1.4654846 7.9129893,1.4661288 7.8556538,1.4675698 C 7.85,1.4677139 7.8444733,1.4684598 7.8388278,1.4686124 C 7.8040231,1.4695788 7.7693709,1.4702568 7.7347188,1.4717488 C 7.7090603,1.4728507 7.6835373,1.4745206 7.6579551,1.4759192 C 7.6470966,1.4765125 7.6361958,1.4773602 7.6253458,1.4780044 C 7.5884049,1.4801999 7.5517014,1.4825224 7.5149301,1.4853113 C 7.464003,1.4891595 7.4130419,1.493881 7.3624453,1.4988652 C 7.3547232,1.4996282 7.3470181,1.5001622 7.3393043,1.500959 C 7.2919882,1.5057822 7.2443499,1.5108002 7.1973389,1.5166067 C 7.19138,1.5173357 7.1854039,1.5179375 7.1794534,1.5186834 C 7.1770037,1.518997 7.1745455,1.5194209 7.1720958,1.519726 C 7.1706717,1.5199125 7.1693239,1.5205907 7.1678914,1.5207686 C 7.115981,1.5274143 7.0648334,1.5338141 7.0132959,1.5416379 C 6.9708623,1.5480801 6.9282168,1.5552683 6.8860459,1.5624987 C 6.8734667,1.5646518 6.8607349,1.5665251 6.8481895,1.5687629 C 6.8372548,1.5706955 6.8264981,1.5730267 6.8155888,1.5750186 C 6.7719769,1.5829866 6.7284921,1.5912512 6.6851769,1.60005 C 6.6335208,1.6105523 6.5818307,1.6217498 6.5305899,1.6334306 C 6.5232238,1.6351174 6.5158831,1.6369398 6.508517,1.6386437 C 6.4616246,1.6495106 6.4151477,1.6601996 6.3686453,1.6720329 C 6.3665008,1.6725754 6.3644749,1.6735671 6.3623302,1.6741181 C 6.358109,1.6752031 6.35393,1.6761609 6.3497086,1.6772459 C 6.3007481,1.689859 6.2520588,1.7032011 6.2035389,1.7168908 C 6.1761342,1.724613 6.1487719,1.7328098 6.1215113,1.7408794 C 6.0835533,1.7521193 6.0456037,1.763427 6.0079339,1.7753027 C 5.9759772,1.7853813 5.9439783,1.7950108 5.9122336,1.8055555 C 5.9062067,1.807556 5.9003749,1.8098024 5.8943565,1.8118112 C 5.8859648,1.8146254 5.8774882,1.8173126 5.8691218,1.8201607 C 5.8336389,1.8322059 5.7980967,1.8450902 5.7629021,1.8577118 C 5.7385235,1.8664512 5.7145856,1.8758262 5.6903343,1.8848368 C 5.6650826,1.8942204 5.6397292,1.9033157 5.6146217,1.9130129 C 5.6034072,1.9173359 5.5921418,1.9211504 5.5809697,1.9255327 C 5.5393668,1.9418332 5.4980605,1.9584981 5.4568814,1.9755952 C 5.4488287,1.9789435 5.4407251,1.9826648 5.4326893,1.9860299 C 5.3882467,2.0046953 5.3441263,2.0238184 5.3001753,2.0434077 C 5.2878419,2.0489091 5.275678,2.054529 5.2633786,2.060098 C 5.2566821,2.0631327 5.2500788,2.0664301 5.2433993,2.0694901 C 5.2080691,2.0856295 5.1732134,2.1017773 5.1382307,2.11851 C 5.0975601,2.1379637 5.0564404,2.1577311 5.0162445,2.1779731 C 5.0014445,2.185424 4.9868139,2.1933665 4.9720733,2.2009191 C 4.9420408,2.216321 4.9124407,2.2320197 4.882688,2.2478623 C 4.8719481,2.253584 4.8608015,2.2587886 4.8500786,2.2645611 C 4.8086367,2.2869053 4.7679577,2.3102159 4.7270413,2.3333993 C 4.7093932,2.3434015 4.6919993,2.3535056 4.6744612,2.3636521 C 4.6399786,2.3836144 4.6054791,2.4036106 4.5713948,2.4241577 C 4.5254773,2.4518507 4.4798735,2.4799081 4.4346849,2.508652 C 4.4329726,2.509754 4.4311417,2.5106949 4.4294294,2.5117884 L 3.3883133,1.3590868 z M 8.0281263,2.2635185 C 11.265672,2.2635185 13.893091,4.86978 13.893099,8.0812678 C 13.893099,11.292739 11.265672,13.899008 8.0281263,13.899008 C 7.9775382,13.899008 7.9269671,13.898195 7.8766926,13.896923 C 7.8264097,13.89566 7.7762708,13.894219 7.72631,13.891702 C 4.6287811,13.735801 2.1631541,11.192376 2.1631541,8.0812678 C 2.1631541,8.0310866 2.1639848,7.9809223 2.1652563,7.9310462 C 2.2455971,4.7888459 4.8411697,2.2635185 8.0281263,2.2635185 z"
       id="path4301" />
    <rect
       style="fill:#000000;fill-opacity:1;stroke:none;stroke-width:0.741;stroke-linecap:round;stroke-linejoin:round;stroke-miterlimit:4;stroke-dasharray:none;stroke-opacity:1"
       id="rect3205"
       width="5.5625"
       height="5.5625"
       x="5.1875"
       y="5.1875" />
    <path
       style="fill:#ffffff;fill-opacity:0.54976304;stroke:none;stroke-width:5.92000008;stroke-linecap:round;stroke-linejoin:miter;stroke-miterlimit:4;stroke-dasharray:none;stroke-dashoffset:0;stroke-opacity:1"
       d="M 8.0760527,2.3111992 C 4.8385081,2.3111992 2.2110806,4.9174692 2.2110806,8.1289484 C 2.2110806,8.1411377 2.2110127,8.1532846 2.2110806,8.165457 C 3.284111,8.6821794 4.5538398,8.9812154 5.9138865,8.9812154 C 9.3188435,8.9812154 12.156134,7.1074385 12.764242,4.6332926 C 11.693619,3.2232936 9.9913398,2.3111992 8.0760527,2.3111992 z"
       id="path4269" />
  </g>
</svg>
