<?xml version="1.0" encoding="UTF-8" standalone="no"?>
<!-- Created with Inkscape (http://www.inkscape.org/) -->
<svg
   xmlns:dc="http://purl.org/dc/elements/1.1/"
   xmlns:cc="http://creativecommons.org/ns#"
   xmlns:rdf="http://www.w3.org/1999/02/22-rdf-syntax-ns#"
   xmlns:svg="http://www.w3.org/2000/svg"
   xmlns="http://www.w3.org/2000/svg"
   xmlns:xlink="http://www.w3.org/1999/xlink"
   xmlns:sodipodi="http://sodipodi.sourceforge.net/DTD/sodipodi-0.dtd"
   xmlns:inkscape="http://www.inkscape.org/namespaces/inkscape"
   width="16"
   height="16"
   id="svg3157"
   sodipodi:version="0.32"
   inkscape:version="0.46"
   version="1.0"
   sodipodi:docname="jpoff.svg"
   inkscape:output_extension="org.inkscape.output.svg.inkscape">
  <defs
     id="defs3159">
    <linearGradient
       id="linearGradient4333">
      <stop
         style="stop-color:#000000;stop-opacity:1;"
         offset="0"
         id="stop4335" />
      <stop
         style="stop-color:#000000;stop-opacity:1;"
         offset="1"
         id="stop4337" />
    </linearGradient>
    <linearGradient
       id="linearGradient3707">
      <stop
         style="stop-color:#ffffff;stop-opacity:1;"
         offset="0"
         id="stop3709" />
      <stop
         style="stop-color:#000000;stop-opacity:1;"
         offset="1"
         id="stop3711" />
    </linearGradient>
    <linearGradient
       id="linearGradient3699">
      <stop
         style="stop-color:#fffa39;stop-opacity:1;"
         offset="0"
         id="stop3701" />
      <stop
         style="stop-color:#ddd700;stop-opacity:1;"
         offset="1"
         id="stop3703" />
    </linearGradient>
    <inkscape:perspective
       sodipodi:type="inkscape:persp3d"
       inkscape:vp_x="0 : 526.18109 : 1"
       inkscape:vp_y="0 : 1000 : 0"
       inkscape:vp_z="744.09448 : 526.18109 : 1"
       inkscape:persp3d-origin="372.04724 : 350.78739 : 1"
       id="perspective3165" />
    <radialGradient
       inkscape:collect="always"
       xlink:href="#linearGradient3699"
       id="radialGradient3705"
       cx="-294.28571"
       cy="478.07648"
       fx="-294.28571"
       fy="478.07648"
       r="214.28572"
       gradientUnits="userSpaceOnUse" />
    <filter
       inkscape:collect="always"
       id="filter4095"
       x="-0.27480915"
       width="1.5496182"
       y="-0.27480915"
       height="1.5496182">
      <feGaussianBlur
         inkscape:collect="always"
         stdDeviation="14.067611"
         id="feGaussianBlur4097" />
    </filter>
    <radialGradient
       inkscape:collect="always"
       xlink:href="#linearGradient3707"
       id="radialGradient4351"
       cx="8.0593748"
       cy="8.058795"
       fx="8.0593748"
       fy="8.058795"
       r="7.9999862"
       gradientTransform="matrix(4.8554954,-1.5392581e-7,9.8502821e-8,3.1072109,-31.072883,-16.981578)"
       gradientUnits="userSpaceOnUse" />
  </defs>
  <sodipodi:namedview
     id="base"
     pagecolor="#ffffff"
     bordercolor="#666666"
     borderopacity="1.0"
     inkscape:pageopacity="0.0"
     inkscape:pageshadow="2"
     inkscape:zoom="16"
     inkscape:cx="-4.1201556"
     inkscape:cy="8.0494932"
     inkscape:document-units="px"
     inkscape:current-layer="layer1"
     showgrid="false"
     inkscape:window-width="1440"
     inkscape:window-height="790"
     inkscape:window-x="-8"
     inkscape:window-y="-8" />
  <metadata
     id="metadata3162">
    <rdf:RDF>
      <cc:Work
         rdf:about="">
        <dc:format>image/svg+xml</dc:format>
        <dc:type
           rdf:resource="http://purl.org/dc/dcmitype/StillImage" />
      </cc:Work>
    </rdf:RDF>
  </metadata>
  <g
     inkscape:label="Camada 1"
     inkscape:groupmode="layer"
     id="layer1">
    <path
       sodipodi:type="arc"
       style="fill:url(#radialGradient3705);fill-opacity:1;stroke:#818181;stroke-width:7.27868891;stroke-linecap:round;stroke-linejoin:miter;stroke-miterlimit:4;stroke-dasharray:none;stroke-dashoffset:0;stroke-opacity:1"
       id="path3188"
       sodipodi:cx="-294.28571"
       sodipodi:cy="478.07648"
       sodipodi:rx="214.28572"
       sodipodi:ry="214.28572"
       d="M -79.999985,478.07648 A 214.28572,214.28572 0 1 1 -508.57143,478.07648 A 214.28572,214.28572 0 1 1 -79.999985,478.07648 z"
       transform="matrix(3.2289723e-2,0,0,3.2029749e-2,17.561779,-7.2538745)" />
    <path
       sodipodi:type="arc"
       style="fill:#ffffff;fill-opacity:0.45;stroke:none;stroke-width:5.92000008;stroke-linecap:round;stroke-linejoin:miter;stroke-miterlimit:4;stroke-dasharray:none;stroke-dashoffset:0;stroke-opacity:1;filter:url(#filter4095)"
       id="path3749"
       sodipodi:cx="318.57144"
       sodipodi:cy="468.07648"
       sodipodi:rx="61.42857"
       sodipodi:ry="61.42857"
       d="M 380.00001,468.07648 A 61.42857,61.42857 0 1 1 257.14287,468.07648 A 61.42857,61.42857 0 1 1 380.00001,468.07648 z"
       transform="matrix(7.4784631e-2,0,0,7.4182511e-2,-15.764873,-26.664293)" />
    <path
       style="fill:#ffffff;fill-opacity:0.56818181;stroke:none;stroke-width:5.92000008000000030;stroke-linecap:round;stroke-linejoin:miter;stroke-miterlimit:4;stroke-dasharray:none;stroke-dashoffset:0;stroke-opacity:1"
       d="M 8.1159144,1.3150902 C 4.2965044,1.3150902 1.1968644,4.3897702 1.1968644,8.1784302 C 1.1968644,8.1928102 1.1967844,8.2071402 1.1968644,8.2215002 C 2.4627444,8.8310902 3.9606744,9.1838702 5.5651544,9.1838702 C 9.5820648,9.1838702 12.929285,6.9733302 13.646685,4.0545202 C 12.383645,2.3911102 10.375425,1.3150902 8.1159144,1.3150902 z"
       id="path4269" />
    <path
       style="fill:url(#radialGradient4351);fill-opacity:1;stroke:#818181;stroke-width:0.26615160999999998;stroke-linecap:round;stroke-linejoin:miter;stroke-miterlimit:4;stroke-dasharray:none;stroke-dashoffset:0;stroke-opacity:1"
       d="M 2.5856744,0.1918602 L 0.9802744,1.6181802 L 2.1762644,2.9435902 C 2.1708044,2.9496802 2.1655544,2.9559402 2.1601244,2.9620502 C 2.1317944,2.9939102 2.1035844,3.0257302 2.0757544,3.0580402 C 2.0622144,3.0737702 2.0494744,3.0902102 2.0360544,3.1060402 C 2.0122344,3.1341702 1.9875444,3.1612502 1.9641144,3.1897202 C 1.9555244,3.2001502 1.9478244,3.2112502 1.9392944,3.2217202 C 1.9067244,3.2617102 1.8743244,3.3016902 1.8425244,3.3423202 C 1.7750144,3.4286102 1.7079244,3.5165602 1.6440244,3.6056802 C 1.6405744,3.6104902 1.6375344,3.6156402 1.6340944,3.6204402 C 1.4995244,3.8090702 1.3733144,4.0033202 1.2557144,4.2037802 C 1.2338944,4.2409502 1.2123944,4.2782202 1.1911944,4.3157802 C 1.1762044,4.3423102 1.1612144,4.3690402 1.1465344,4.3957702 C 1.1418444,4.4042902 1.1375344,4.4130702 1.1328844,4.4216102 C 1.1122444,4.4594902 1.0921144,4.4978002 1.0720944,4.5360602 C 1.0549344,4.5688502 1.0379144,4.6014402 1.0212244,4.6345102 C 1.0115244,4.6537002 1.0022344,4.6730702 0.9926844,4.6923502 C 0.9779444,4.7221702 0.9636244,4.7521602 0.9492644,4.7821902 C 0.9391844,4.8032302 0.9281444,4.8238002 0.9182444,4.8449502 C 0.8973144,4.8897302 0.8775444,4.9350902 0.8574544,4.9803202 C 0.8338744,5.0334002 0.8116344,5.0866002 0.7892244,5.1403002 C 0.7888144,5.1412902 0.7871444,5.1417702 0.7867344,5.1427602 C 0.7643344,5.1964602 0.7434344,5.2509102 0.7222244,5.3052102 C 0.7037044,5.3525902 0.6852444,5.4001402 0.6676444,5.4479602 C 0.6556144,5.4806402 0.6432744,5.5135302 0.6316644,5.5464102 C 0.6230144,5.5709402 0.6140144,5.5956102 0.6056144,5.6202502 C 0.6038144,5.6255202 0.6024344,5.6309802 0.6006544,5.6362502 C 0.5819344,5.6914602 0.5635544,5.7466502 0.5460644,5.8024002 C 0.5459444,5.8027802 0.5461844,5.8032602 0.5460644,5.8036302 C 0.5360844,5.8354102 0.5270844,5.8676702 0.5175244,5.8996202 C 0.5089244,5.9283402 0.4997444,5.9569002 0.4914744,5.9857702 C 0.4913644,5.9861402 0.4915844,5.9866202 0.4914744,5.9869902 C 0.4764444,6.0394402 0.4619844,6.0928702 0.4480444,6.1457402 C 0.4456544,6.1548202 0.4429644,6.1637402 0.4406044,6.1728202 C 0.4280444,6.2212202 0.4162744,6.2692802 0.4046244,6.3180402 C 0.3907444,6.3761502 0.3774844,6.4341802 0.3649244,6.4927902 C 0.3552944,6.5376602 0.3464744,6.5830002 0.3376344,6.6281602 C 0.3334644,6.6494802 0.3292244,6.6707702 0.3252144,6.6921602 C 0.3156844,6.7431502 0.3064544,6.7946502 0.2979344,6.8459802 C 0.2910044,6.8876902 0.2843344,6.9295802 0.2780844,6.9715102 C 0.2702544,7.0239302 0.2625244,7.0762902 0.2557444,7.1290302 C 0.2477444,7.1914102 0.2411544,7.2545002 0.2346544,7.3173302 C 0.2341744,7.3218502 0.2338644,7.3263502 0.2334144,7.3308702 C 0.2275144,7.3889202 0.2219044,7.4472002 0.2172844,7.5056202 C 0.2166744,7.5134102 0.2166444,7.5212002 0.2160444,7.5290002 C 0.2133144,7.5650702 0.2108444,7.6010902 0.2086044,7.6373002 C 0.2063244,7.6741402 0.2029144,7.7110802 0.2011644,7.7480602 C 0.2007144,7.7574702 0.2003344,7.7669402 0.1999244,7.7763602 C 0.1977944,7.8244502 0.1961844,7.8720302 0.1949544,7.9203402 C 0.1948144,7.9256902 0.1950844,7.9310002 0.1949544,7.9363502 C 0.1935044,7.9979702 0.1924644,8.0601902 0.1924644,8.1221802 C 0.1924644,12.16071 3.2899544,15.4853 7.2554344,15.88512 C 7.3876144,15.89845 7.5209044,15.90915 7.6549244,15.91589 C 7.7889544,15.92263 7.9236644,15.92573 8.0593744,15.92573 C 8.1950848,15.92573 8.3297948,15.92263 8.4638248,15.91589 C 8.5978448,15.90915 8.7311248,15.89845 8.8633148,15.88512 C 12.828795,15.48529 15.926285,12.16071 15.926285,8.1221802 C 15.926285,8.0547102 15.925515,7.9873902 15.923795,7.9203402 C 15.922345,7.8637702 15.920245,7.8080202 15.917585,7.7517502 C 15.917095,7.7414702 15.916875,7.7312602 15.916345,7.7209802 C 15.913745,7.6701102 15.910005,7.6189902 15.906425,7.5683802 C 15.905305,7.5527202 15.903905,7.5372502 15.902705,7.5216202 C 15.902285,7.5162502 15.901885,7.5109702 15.901465,7.5056202 C 15.896845,7.4472002 15.891235,7.3889202 15.885325,7.3308702 C 15.885125,7.3288402 15.885535,7.3267402 15.885325,7.3247202 C 15.885065,7.3222202 15.884355,7.3198202 15.884095,7.3173302 C 15.877595,7.2545002 15.871005,7.1914102 15.863005,7.1290302 C 15.856225,7.0762902 15.848495,7.0239302 15.840665,6.9715102 C 15.838845,6.9592202 15.837595,6.9468602 15.835705,6.9345902 C 15.831135,6.9049802 15.825715,6.8754902 15.820815,6.8459802 C 15.812295,6.7946502 15.803055,6.7431502 15.793535,6.6921602 C 15.792085,6.6844302 15.791275,6.6764902 15.789805,6.6687702 C 15.787215,6.6551602 15.783775,6.6417502 15.781115,6.6281602 C 15.772275,6.5830002 15.763455,6.5376602 15.753825,6.4927902 C 15.741265,6.4341802 15.727995,6.3761502 15.714125,6.3180402 C 15.702475,6.2692802 15.690705,6.2212202 15.678145,6.1728202 C 15.675785,6.1637402 15.673095,6.1548202 15.670705,6.1457402 C 15.656765,6.0928702 15.642305,6.0394402 15.627275,5.9869902 C 15.625995,5.9824902 15.624855,5.9779602 15.623565,5.9734602 C 15.607035,5.9162002 15.590485,5.8591102 15.572685,5.8024002 C 15.555195,5.7466502 15.536815,5.6914602 15.518095,5.6362502 C 15.516315,5.6309802 15.514935,5.6255202 15.513135,5.6202502 C 15.495895,5.5697502 15.478035,5.5189202 15.459795,5.4688802 C 15.456155,5.4589502 15.452285,5.4492602 15.448615,5.4393502 C 15.432015,5.3943402 15.413955,5.3498302 15.396525,5.3052102 C 15.375315,5.2509102 15.354405,5.1964602 15.332015,5.1427602 C 15.331795,5.1422702 15.330975,5.1420202 15.330765,5.1415302 C 15.322895,5.1226602 15.315225,5.1037202 15.307205,5.0849302 C 15.292185,5.0497102 15.276815,5.0152602 15.261285,4.9803202 C 15.241205,4.9350902 15.221425,4.8897302 15.200495,4.8449502 C 15.196855,4.8371602 15.192995,4.8293402 15.189335,4.8215602 C 15.176325,4.7940202 15.162935,4.7664802 15.149635,4.7391202 C 15.137345,4.7138402 15.124965,4.6891602 15.112415,4.6640402 C 15.096755,4.6327102 15.081345,4.6016102 15.065275,4.5705202 C 15.054665,4.5499702 15.043795,4.5294202 15.033005,4.5089902 C 15.014315,4.4736002 14.995155,4.4382102 14.975945,4.4031502 C 14.967165,4.3871502 14.958765,4.3710902 14.949885,4.3551502 C 14.942545,4.3419802 14.934965,4.3289002 14.927555,4.3157802 C 14.906345,4.2782202 14.884855,4.2409502 14.863035,4.2037802 C 14.745435,4.0033202 14.619225,3.8090702 14.484645,3.6204402 C 14.481215,3.6156402 14.478165,3.6104902 14.474725,3.6056802 C 14.410825,3.5165602 14.343735,3.4286102 14.276225,3.3423202 C 14.244425,3.3016902 14.212025,3.2617102 14.179445,3.2217202 C 14.175545,3.2169302 14.172195,3.2117302 14.168275,3.2069502 C 14.155135,3.1908902 14.141865,3.1749102 14.128595,3.1589602 C 14.104785,3.1303502 14.080835,3.1023102 14.056635,3.0740402 C 14.040095,3.0547402 14.023725,3.0353502 14.007005,3.0162002 C 13.985715,2.9918202 13.964075,2.9677002 13.942485,2.9435902 L 15.138465,1.6181802 L 13.533075,0.1918602 L 12.304845,1.5517302 C 12.302815,1.5504402 12.300665,1.5493302 12.298645,1.5480302 C 12.245335,1.5141202 12.191535,1.4810202 12.137365,1.4483502 C 12.097145,1.4241102 12.056455,1.4005202 12.015775,1.3769702 C 12.002045,1.3690302 11.988625,1.3602302 11.974835,1.3523602 C 11.967955,1.3484302 11.960635,1.3451902 11.953745,1.3412802 C 11.905475,1.3139302 11.857485,1.2864302 11.808595,1.2600702 C 11.761125,1.2344602 11.712725,1.2096402 11.664675,1.1849902 C 11.647165,1.1760202 11.630135,1.1667702 11.612565,1.1579202 C 11.516405,1.1095002 11.419405,1.0634302 11.321015,1.0188602 C 11.306545,1.0123002 11.292115,1.0056402 11.277605,0.9991702 C 11.225755,0.9760602 11.173705,0.9535002 11.121275,0.9314802 C 11.063645,0.9072802 11.004655,0.8829602 10.946345,0.8601102 C 10.933215,0.8549602 10.919825,0.8504202 10.906645,0.8453402 C 10.876875,0.8338402 10.847265,0.8232302 10.817325,0.8121002 C 10.788865,0.8015202 10.760325,0.7903602 10.731715,0.7801002 C 10.690215,0.7652202 10.648235,0.7500002 10.606405,0.7358002 C 10.596535,0.7324402 10.586525,0.7292702 10.576625,0.7259502 C 10.569575,0.7235902 10.562605,0.7209102 10.555545,0.7185702 C 10.517855,0.7060502 10.480585,0.6948402 10.442635,0.6828802 C 10.398195,0.6688702 10.353435,0.6555302 10.308655,0.6422702 C 10.292145,0.6373902 10.275595,0.6322902 10.259035,0.6275002 C 10.243325,0.6229702 10.227635,0.6184102 10.211885,0.6139702 C 10.154645,0.5978202 10.097205,0.5820802 10.039445,0.5672002 C 10.034475,0.5659302 10.029515,0.5647802 10.024555,0.5635102 C 10.022015,0.5628602 10.019645,0.5616902 10.017105,0.5610502 C 9.9621448,0.5470702 9.9075148,0.5345002 9.8520948,0.5216602 C 9.8434548,0.5196702 9.8346848,0.5174902 9.8260448,0.5155102 C 9.7656048,0.5017302 9.7046248,0.4885202 9.6436748,0.4761302 C 9.5925848,0.4657502 9.5412848,0.4560002 9.4898348,0.4466002 C 9.4620748,0.4415302 9.4345748,0.4366002 9.4067148,0.4318302 C 9.3569548,0.4233002 9.3066548,0.4148202 9.2565948,0.4072202 C 9.1957948,0.3979902 9.1354548,0.3904402 9.0742148,0.3826002 C 9.0626648,0.3811202 9.0510348,0.3791102 9.0394748,0.3776902 C 8.9840048,0.3708402 8.9278148,0.3649202 8.8719948,0.3592302 C 8.8629048,0.3582902 8.8537948,0.3576602 8.8446948,0.3567602 C 8.7847448,0.3508602 8.7251448,0.3453202 8.6648048,0.3407702 C 8.6214248,0.3374802 8.5781148,0.3347402 8.5345348,0.3321502 C 8.5216648,0.3313902 8.5089548,0.3303902 8.4960748,0.3296902 C 8.4658948,0.3280402 8.4357648,0.3260702 8.4055048,0.3247702 C 8.3646248,0.3230102 8.3237348,0.3222102 8.2826848,0.3210702 C 8.2760548,0.3208902 8.2694948,0.3200102 8.2628348,0.3198402 C 8.1953948,0.3181502 8.1272244,0.3173802 8.0593744,0.3173802 C 7.9913144,0.3173802 7.9235444,0.3181402 7.8559044,0.3198402 C 7.8492344,0.3200102 7.8427144,0.3208902 7.8360544,0.3210702 C 7.7949944,0.3222102 7.7541144,0.3230102 7.7132344,0.3247702 C 7.6829644,0.3260702 7.6528544,0.3280402 7.6226744,0.3296902 C 7.6098644,0.3303902 7.5970044,0.3313902 7.5842044,0.3321502 C 7.5406244,0.3347402 7.4973244,0.3374802 7.4539444,0.3407702 C 7.3938644,0.3453102 7.3337444,0.3508802 7.2740544,0.3567602 C 7.2649444,0.3576602 7.2558544,0.3582902 7.2467544,0.3592302 C 7.1909344,0.3649202 7.1347344,0.3708402 7.0792744,0.3776902 C 7.0722444,0.3785502 7.0651944,0.3792602 7.0581744,0.3801402 C 7.0552844,0.3805102 7.0523844,0.3810102 7.0494944,0.3813702 C 7.0478144,0.3815902 7.0462244,0.3823902 7.0445344,0.3826002 C 6.9832944,0.3904402 6.9229544,0.3979902 6.8621544,0.4072202 C 6.8120944,0.4148202 6.7617844,0.4233002 6.7120344,0.4318302 C 6.6971944,0.4343702 6.6821744,0.4365802 6.6673744,0.4392202 C 6.6544744,0.4415002 6.6417844,0.4442502 6.6289144,0.4466002 C 6.5774644,0.4560002 6.5261644,0.4657502 6.4750644,0.4761302 C 6.4141244,0.4885202 6.3531444,0.5017302 6.2926944,0.5155102 C 6.2840044,0.5175002 6.2753444,0.5196502 6.2666544,0.5216602 C 6.2113344,0.5344802 6.1565044,0.5470902 6.1016444,0.5610502 C 6.0991144,0.5616902 6.0967244,0.5628602 6.0941944,0.5635102 C 6.0892144,0.5647902 6.0842844,0.5659202 6.0793044,0.5672002 C 6.0215444,0.5820802 5.9641044,0.5978202 5.9068644,0.6139702 C 5.8745344,0.6230802 5.8422544,0.6327502 5.8100944,0.6422702 C 5.7653144,0.6555302 5.7205444,0.6688702 5.6761044,0.6828802 C 5.6384044,0.6947702 5.6006544,0.7061302 5.5632044,0.7185702 C 5.5560944,0.7209302 5.5492144,0.7235802 5.5421144,0.7259502 C 5.5322144,0.7292702 5.5222144,0.7324402 5.5123444,0.7358002 C 5.4704844,0.7500102 5.4285544,0.7652102 5.3870344,0.7801002 C 5.3582744,0.7904102 5.3300344,0.8014702 5.3014244,0.8121002 C 5.2716344,0.8231702 5.2417244,0.8339002 5.2121044,0.8453402 C 5.1988744,0.8504402 5.1855844,0.8549402 5.1724044,0.8601102 C 5.1233244,0.8793402 5.0745944,0.8990002 5.0260144,0.9191702 C 5.0165144,0.9231202 5.0069544,0.9275102 4.9974744,0.9314802 C 4.9450444,0.9535002 4.8929944,0.9760602 4.8411444,0.9991702 C 4.8265944,1.0056602 4.8122444,1.0122902 4.7977344,1.0188602 C 4.7898344,1.0224402 4.7820444,1.0263302 4.7741644,1.0299402 C 4.7324844,1.0489802 4.6913644,1.0680302 4.6500944,1.0877702 C 4.6021144,1.1107202 4.5536044,1.1340402 4.5061844,1.1579202 C 4.4887244,1.1667102 4.4714644,1.1760802 4.4540744,1.1849902 C 4.4186444,1.2031602 4.3837244,1.2216802 4.3486244,1.2403702 C 4.3359544,1.2471202 4.3228044,1.2532602 4.3101544,1.2600702 C 4.2612644,1.2864302 4.2132744,1.3139302 4.1650044,1.3412802 C 4.1441844,1.3530802 4.1236644,1.3650002 4.1029744,1.3769702 C 4.0622944,1.4005202 4.0215944,1.4241102 3.9813844,1.4483502 C 3.9272144,1.4810202 3.8734144,1.5141202 3.8201044,1.5480302 C 3.8180844,1.5493302 3.8159244,1.5504402 3.8139044,1.5517302 L 2.5856744,0.1918602 z M 8.0593744,1.2588402 C 11.878785,1.2588402 14.978415,4.3335102 14.978425,8.1221802 C 14.978425,11.91083 11.878785,14.98551 8.0593744,14.98551 C 7.9996944,14.98551 7.9400344,14.98455 7.8807244,14.98305 C 7.8214044,14.98156 7.7622544,14.97986 7.7033144,14.97689 C 4.0490844,14.79297 1.1403244,11.79243 1.1403244,8.1221802 C 1.1403244,8.0629802 1.1413044,8.0038002 1.1428044,7.9449602 C 1.2375844,4.2380302 4.2996444,1.2588402 8.0593744,1.2588402 z"
       id="path4301" />
    <path
       sodipodi:type="arc"
       style="opacity:1;fill:#000000;fill-opacity:1;stroke:none;stroke-width:0.17894736999999999;stroke-linecap:round;stroke-linejoin:miter;stroke-miterlimit:4;stroke-dasharray:none;stroke-dashoffset:0;stroke-opacity:1"
       id="path3167"
       sodipodi:cx="-8.0625"
       sodipodi:cy="9.75"
       sodipodi:rx="1.0625"
       sodipodi:ry="1.0625"
       d="M -7,9.75 A 1.0625,1.0625 0 1 1 -9.125,9.75 A 1.0625,1.0625 0 1 1 -7,9.75 z"
       transform="matrix(1.6764706,0,0,1.6764706,17.672794,-8.0643382)" />
    <path
       transform="matrix(1.6764706,0,0,1.6764706,21.547794,-8.0643382)"
       d="M -7,9.75 A 1.0625,1.0625 0 1 1 -9.125,9.75 A 1.0625,1.0625 0 1 1 -7,9.75 z"
       sodipodi:ry="1.0625"
       sodipodi:rx="1.0625"
       sodipodi:cy="9.75"
       sodipodi:cx="-8.0625"
       id="path3169"
       style="opacity:1;fill:#000000;fill-opacity:1;stroke:none;stroke-width:5.0999999;stroke-linecap:round;stroke-linejoin:miter;stroke-miterlimit:4;stroke-dasharray:none;stroke-dashoffset:0;stroke-opacity:1"
       sodipodi:type="arc" />
    <path
       sodipodi:type="arc"
       style="opacity:1;fill:#000000;fill-opacity:1;stroke:none;stroke-width:5.0999999;stroke-linecap:round;stroke-linejoin:miter;stroke-miterlimit:4;stroke-dasharray:none;stroke-dashoffset:0;stroke-opacity:1"
       id="path3171"
       sodipodi:cx="-8.0625"
       sodipodi:cy="9.75"
       sodipodi:rx="1.0625"
       sodipodi:ry="1.0625"
       d="M -7,9.75 A 1.0625,1.0625 0 1 1 -9.125,9.75 A 1.0625,1.0625 0 1 1 -7,9.75 z"
       transform="matrix(1.6764706,0,0,1.6764706,25.422794,-8.0643382)" />
  </g>
</svg>
