<?xml version="1.0" encoding="UTF-8" standalone="no"?>
<!-- Created with Inkscape (http://www.inkscape.org/) -->
<svg
   xmlns:dc="http://purl.org/dc/elements/1.1/"
   xmlns:cc="http://creativecommons.org/ns#"
   xmlns:rdf="http://www.w3.org/1999/02/22-rdf-syntax-ns#"
   xmlns:svg="http://www.w3.org/2000/svg"
   xmlns="http://www.w3.org/2000/svg"
   xmlns:xlink="http://www.w3.org/1999/xlink"
   xmlns:sodipodi="http://sodipodi.sourceforge.net/DTD/sodipodi-0.dtd"
   xmlns:inkscape="http://www.inkscape.org/namespaces/inkscape"
   width="16"
   height="16"
   id="svg3157"
   sodipodi:version="0.32"
   inkscape:version="0.46"
   version="1.0"
   sodipodi:docname="jpon.svg"
   inkscape:output_extension="org.inkscape.output.svg.inkscape"
   inkscape:export-filename="C:\JPatchaca\jpatchaca-ui\src\main\resources\ui\swing\tray\jpon.png"
   inkscape:export-xdpi="90"
   inkscape:export-ydpi="90">
  <defs
     id="defs3159">
    <linearGradient
       inkscape:collect="always"
       id="linearGradient3187">
      <stop
         style="stop-color:#000000;stop-opacity:1;"
         offset="0"
         id="stop3189" />
      <stop
         style="stop-color:#797979;stop-opacity:1"
         offset="1"
         id="stop3191" />
    </linearGradient>
    <linearGradient
       inkscape:collect="always"
       id="linearGradient3169">
      <stop
         style="stop-color:#858585;stop-opacity:1"
         offset="0"
         id="stop3171" />
      <stop
         style="stop-color:#f8f8f8;stop-opacity:1"
         offset="1"
         id="stop3173" />
    </linearGradient>
    <linearGradient
       id="linearGradient4333">
      <stop
         style="stop-color:#000000;stop-opacity:1;"
         offset="0"
         id="stop4335" />
      <stop
         style="stop-color:#000000;stop-opacity:1;"
         offset="1"
         id="stop4337" />
    </linearGradient>
    <linearGradient
       id="linearGradient3707">
      <stop
         style="stop-color:#5b5b5b;stop-opacity:1;"
         offset="0"
         id="stop3709" />
      <stop
         style="stop-color:#000000;stop-opacity:1;"
         offset="1"
         id="stop3711" />
    </linearGradient>
    <linearGradient
       id="linearGradient3699">
      <stop
         style="stop-color:#009b00;stop-opacity:1;"
         offset="0"
         id="stop3701" />
      <stop
         style="stop-color:#009900;stop-opacity:1;"
         offset="1"
         id="stop3703" />
    </linearGradient>
    <inkscape:perspective
       sodipodi:type="inkscape:persp3d"
       inkscape:vp_x="0 : 526.18109 : 1"
       inkscape:vp_y="0 : 1000 : 0"
       inkscape:vp_z="744.09448 : 526.18109 : 1"
       inkscape:persp3d-origin="372.04724 : 350.78739 : 1"
       id="perspective3165" />
    <radialGradient
       inkscape:collect="always"
       xlink:href="#linearGradient3707"
       id="radialGradient4351"
       cx="8.0593748"
       cy="8.058795"
       fx="8.0593748"
       fy="8.058795"
       r="7.9999862"
       gradientTransform="matrix(3.6985197,-1.1724811e-7,7.5031401e-8,2.3668194,-21.592132,-11.108671)"
       gradientUnits="userSpaceOnUse" />
    <linearGradient
       inkscape:collect="always"
       xlink:href="#linearGradient3169"
       id="linearGradient3175"
       x1="8.5625"
       y1="0.93749952"
       x2="8.687499"
       y2="16"
       gradientUnits="userSpaceOnUse"
       gradientTransform="matrix(1.0190857,0,0,1.0190855,-0.1526848,-0.1526849)" />
    <linearGradient
       inkscape:collect="always"
       xlink:href="#linearGradient3187"
       id="linearGradient3193"
       x1="11.75"
       y1="2.9375"
       x2="11.749999"
       y2="16"
       gradientUnits="userSpaceOnUse"
       gradientTransform="matrix(1.0190857,0,0,1.0190855,-0.1526848,-0.1526849)" />
  </defs>
  <sodipodi:namedview
     id="base"
     pagecolor="#ffffff"
     bordercolor="#666666"
     borderopacity="1.0"
     inkscape:pageopacity="0.0"
     inkscape:pageshadow="2"
     inkscape:zoom="16"
     inkscape:cx="-7.338906"
     inkscape:cy="2.9740084"
     inkscape:document-units="px"
     inkscape:current-layer="layer1"
     showgrid="false"
     inkscape:window-width="1680"
     inkscape:window-height="934"
     inkscape:window-x="-4"
     inkscape:window-y="-4"
     showguides="true"
     inkscape:guide-bbox="true" />
  <metadata
     id="metadata3162">
    <rdf:RDF>
      <cc:Work
         rdf:about="">
        <dc:format>image/svg+xml</dc:format>
        <dc:type
           rdf:resource="http://purl.org/dc/dcmitype/StillImage" />
      </cc:Work>
    </rdf:RDF>
  </metadata>
  <g
     inkscape:label="Camada 1"
     inkscape:groupmode="layer"
     id="layer1">
    <g
       id="g3177"
       transform="matrix(1.2769233,0,0,1.2769233,-2.5250963,-2.2057024)">
      <path
         transform="matrix(2.4595674e-2,0,0,2.4397647e-2,15.45378,-3.698902)"
         d="M -79.999985,478.07648 A 214.28572,214.28572 0 1 1 -508.57143,478.07648 A 214.28572,214.28572 0 1 1 -79.999985,478.07648 z"
         sodipodi:ry="214.28572"
         sodipodi:rx="214.28572"
         sodipodi:cy="478.07648"
         sodipodi:cx="-294.28571"
         id="path3188"
         style="fill:#00ff00;fill-opacity:1;stroke:#818181;stroke-width:7.27868891;stroke-linecap:round;stroke-linejoin:miter;stroke-miterlimit:4;stroke-dasharray:none;stroke-dashoffset:0;stroke-opacity:1"
         sodipodi:type="arc" />
      <path
         id="path4301"
         d="M 4.0462068,1.9726507 L 2.8233442,3.0591048 L 3.7343517,4.0686939 C 3.7301927,4.0733327 3.7261937,4.0781011 3.7220576,4.0827552 C 3.7004781,4.1070235 3.67899,4.1312614 3.6577914,4.1558725 C 3.6474777,4.1678544 3.6377734,4.180377 3.6275512,4.192435 C 3.6094071,4.2138622 3.5906002,4.2344895 3.5727532,4.2561756 C 3.56621,4.2641203 3.5603448,4.2725754 3.5538473,4.2805506 C 3.5290382,4.3110117 3.5043585,4.3414652 3.4801358,4.3724138 C 3.4287122,4.4381425 3.3776085,4.5051356 3.3289347,4.57302 C 3.3263068,4.5766838 3.3239912,4.5806067 3.3213709,4.5842629 C 3.2188664,4.7279459 3.12273,4.8759096 3.0331519,5.0286037 C 3.0165312,5.0569168 3.0001543,5.085306 2.9840058,5.1139162 C 2.9725877,5.1341245 2.9611695,5.1544853 2.9499875,5.174846 C 2.946415,5.1813358 2.943132,5.1880237 2.93959,5.1945288 C 2.9238682,5.2233827 2.9085348,5.2525641 2.8932852,5.2817075 C 2.8802141,5.3066842 2.8672496,5.3315086 2.8545366,5.3566986 C 2.8471479,5.371316 2.8400715,5.3860705 2.8327971,5.4007564 C 2.8215694,5.4234709 2.8106616,5.4463148 2.7997233,5.4691892 C 2.7920452,5.4852158 2.7836358,5.5008843 2.7760948,5.5169946 C 2.7601521,5.5511044 2.7450929,5.5856559 2.7297899,5.6201085 C 2.7118286,5.6605405 2.694888,5.7010639 2.6778179,5.7419682 C 2.6775056,5.7427223 2.6762335,5.7430879 2.6759212,5.743842 C 2.6588587,5.7847463 2.6429388,5.8262218 2.6267828,5.8675831 C 2.6126758,5.9036733 2.5986144,5.9398931 2.5852082,5.9763184 C 2.5760447,6.0012114 2.5666451,6.0262643 2.5578016,6.0513096 C 2.5512127,6.0699945 2.5443572,6.0887861 2.5379588,6.1075549 C 2.5365877,6.1115691 2.5355365,6.1157281 2.5341807,6.1197424 C 2.5199213,6.1617968 2.5059209,6.2038361 2.4925985,6.2463019 C 2.4925071,6.2465913 2.4926899,6.2469569 2.4925985,6.2472388 C 2.4849965,6.2714462 2.4781411,6.2960192 2.470859,6.3203561 C 2.4643083,6.3422327 2.4573157,6.3639874 2.4510163,6.3859782 C 2.4509325,6.38626 2.4511001,6.3866256 2.4510163,6.3869075 C 2.4395676,6.4268596 2.4285532,6.4675582 2.4179348,6.5078302 C 2.4161143,6.5147466 2.4140653,6.5215412 2.4122677,6.5284576 C 2.4027005,6.5653247 2.3937351,6.6019329 2.384861,6.6390743 C 2.3742884,6.6833378 2.364188,6.7275403 2.3546208,6.7721846 C 2.3472855,6.8063629 2.3405671,6.8408992 2.3338335,6.8752984 C 2.3306572,6.8915382 2.3274275,6.9077552 2.324373,6.9240484 C 2.3171138,6.9628884 2.3100832,7.0021169 2.3035933,7.0412159 C 2.2983146,7.0729872 2.2932339,7.1048955 2.2884732,7.1368344 C 2.2825089,7.1767637 2.2766209,7.2166472 2.2714564,7.2568203 C 2.2653627,7.3043363 2.2603429,7.3523931 2.2553918,7.4002518 C 2.2550261,7.4036948 2.25479,7.4071225 2.2544472,7.4105655 C 2.2499531,7.4547832 2.2456799,7.4991762 2.2421607,7.5436758 C 2.2416961,7.5496096 2.2416732,7.5555433 2.2412162,7.5614847 C 2.2391367,7.5889599 2.2372553,7.616397 2.235549,7.6439788 C 2.2338123,7.6720405 2.2312148,7.7001784 2.2298818,7.7283468 C 2.2295391,7.7355145 2.2292496,7.742728 2.2289373,7.7499034 C 2.2273148,7.7865344 2.2260885,7.822777 2.2251516,7.8595756 C 2.2250449,7.8636508 2.2252506,7.8676955 2.2251516,7.8717707 C 2.2240471,7.9187078 2.2232549,7.9661019 2.2232549,8.0133208 C 2.2232549,11.089543 4.5826698,13.621944 7.6032486,13.926494 C 7.7039326,13.936648 7.805462,13.944799 7.9075475,13.949932 C 8.0096406,13.955066 8.1122517,13.957428 8.2156245,13.957428 C 8.3189976,13.957428 8.4216086,13.955066 8.5237018,13.949932 C 8.6257872,13.944799 8.7273091,13.936648 8.8280006,13.926494 C 11.84858,13.621937 14.207995,11.089543 14.207995,8.0133208 C 14.207995,7.9619277 14.207408,7.9106488 14.206098,7.8595756 C 14.204993,7.8164852 14.203394,7.7740194 14.201368,7.7311575 C 14.200994,7.723327 14.200827,7.7155499 14.200423,7.7077194 C 14.198443,7.6689708 14.195594,7.6300318 14.192867,7.5914812 C 14.192014,7.5795527 14.190947,7.5677689 14.190033,7.5558633 C 14.189713,7.5517728 14.189409,7.547751 14.189089,7.5436758 C 14.18557,7.4991762 14.181296,7.4547832 14.176795,7.4105655 C 14.176642,7.4090192 14.176955,7.4074196 14.176795,7.4058809 C 14.176596,7.4039766 14.176056,7.4021485 14.175858,7.4002518 C 14.170906,7.3523931 14.165887,7.3043363 14.159793,7.2568203 C 14.154629,7.2166472 14.14874,7.1767637 14.142776,7.1368344 C 14.14139,7.1274729 14.140438,7.118058 14.138998,7.1087118 C 14.135517,7.0861573 14.131389,7.0636942 14.127656,7.0412159 C 14.121166,7.0021169 14.114128,6.9628884 14.106876,6.9240484 C 14.105772,6.9181603 14.105155,6.9121122 14.104035,6.9062318 C 14.102062,6.8958648 14.099442,6.8856502 14.097416,6.8752984 C 14.090682,6.8408992 14.083964,6.8063629 14.076629,6.7721846 C 14.067061,6.7275403 14.056953,6.6833378 14.046388,6.6390743 C 14.037514,6.6019329 14.028549,6.5653247 14.018982,6.5284576 C 14.017184,6.5215412 14.015135,6.5147466 14.013315,6.5078302 C 14.002696,6.4675582 13.991682,6.4268596 13.980233,6.3869075 C 13.979258,6.3834797 13.97839,6.3800291 13.977407,6.3766014 C 13.964816,6.3329854 13.95221,6.2894989 13.938651,6.2463019 C 13.925328,6.2038361 13.911328,6.1617968 13.897069,6.1197424 C 13.895713,6.1157281 13.894662,6.1115691 13.893291,6.1075549 C 13.880159,6.0690881 13.866554,6.03037 13.852661,5.9922536 C 13.849888,5.9846897 13.84694,5.9773087 13.844145,5.96976 C 13.8315,5.9354751 13.817743,5.901571 13.804467,5.8675831 C 13.788311,5.8262218 13.772383,5.7847463 13.755328,5.743842 C 13.755161,5.7434687 13.754536,5.7432783 13.754376,5.7429051 C 13.748381,5.7285314 13.742539,5.7141045 13.73643,5.6997918 C 13.724989,5.6729641 13.713281,5.6467229 13.701452,5.6201085 C 13.686157,5.5856559 13.67109,5.5511044 13.655147,5.5169946 C 13.652374,5.5110609 13.649434,5.5051042 13.646646,5.4991781 C 13.636736,5.4782003 13.626537,5.4572226 13.616406,5.436382 C 13.607044,5.4171258 13.597614,5.3983265 13.588055,5.3791922 C 13.576126,5.3553275 13.564388,5.3316381 13.552147,5.3079563 C 13.544066,5.292303 13.535786,5.2766497 13.527567,5.2610878 C 13.51333,5.2341305 13.498736,5.2071733 13.484103,5.1804675 C 13.477415,5.16828 13.471017,5.1560468 13.464253,5.143905 C 13.458662,5.1338732 13.452888,5.1239099 13.447244,5.1139162 C 13.431088,5.085306 13.414718,5.0569168 13.398098,5.0286037 C 13.308519,4.8759096 13.212383,4.7279459 13.109871,4.5842629 C 13.107258,4.5806067 13.104935,4.5766838 13.102315,4.57302 C 13.053641,4.5051356 13.002537,4.4381425 12.951114,4.3724138 C 12.926891,4.3414652 12.902211,4.3110117 12.877394,4.2805506 C 12.874424,4.276902 12.871872,4.272941 12.868886,4.2693 C 12.858877,4.2570668 12.848769,4.2448946 12.838661,4.2327452 C 12.820525,4.2109524 12.802281,4.1895938 12.783848,4.16806 C 12.771249,4.1533589 12.75878,4.1385891 12.746044,4.1240022 C 12.729827,4.1054315 12.713343,4.0870589 12.696898,4.0686939 L 13.607898,3.0591048 L 12.385043,1.9726507 L 11.449477,3.0084886 C 11.447931,3.007506 11.446293,3.0066605 11.444755,3.0056702 C 11.404147,2.9798404 11.363167,2.9546275 11.321905,2.9297421 C 11.291268,2.9112781 11.260274,2.8933092 11.229287,2.8753707 C 11.218829,2.8693226 11.208607,2.8626195 11.198103,2.8566248 C 11.192862,2.8536313 11.187286,2.8511633 11.182038,2.848185 C 11.14527,2.827352 11.108715,2.8064047 11.071475,2.7863258 C 11.035316,2.7668182 10.998449,2.7479124 10.961848,2.729136 C 10.94851,2.7223034 10.935538,2.7152575 10.922155,2.7085163 C 10.848908,2.6716339 10.775021,2.6365415 10.700076,2.6025917 C 10.689054,2.5975949 10.678062,2.5925218 10.66701,2.5875935 C 10.627515,2.5699902 10.587867,2.5528058 10.54793,2.5360328 C 10.504032,2.5175992 10.459099,2.4990742 10.414683,2.4816689 C 10.404682,2.4777461 10.394482,2.4742879 10.384443,2.4704184 C 10.361766,2.4616586 10.339212,2.4535768 10.316406,2.4450989 C 10.294728,2.4370399 10.272988,2.4285391 10.251195,2.4207239 C 10.219584,2.4093895 10.187607,2.3977962 10.155744,2.3869798 C 10.148226,2.3844204 10.140601,2.3820057 10.13306,2.3794768 C 10.12769,2.3776792 10.122381,2.3756378 10.117003,2.3738553 C 10.088294,2.3643186 10.059905,2.3557798 10.030998,2.3466696 C 9.997147,2.3359979 9.9630525,2.3258366 9.9289427,2.3157362 C 9.9163668,2.312019 9.9037603,2.3081343 9.8911463,2.3044857 C 9.8791797,2.3010351 9.8672283,2.2975616 9.8552313,2.2941796 C 9.8116305,2.2818778 9.7678774,2.2698884 9.7238806,2.258554 C 9.7200948,2.2575866 9.7163167,2.2567107 9.7125386,2.2557433 C 9.7106038,2.2552482 9.7087985,2.254357 9.7068638,2.2538695 C 9.6649996,2.2432207 9.6233869,2.2336459 9.5811725,2.2238654 C 9.5745912,2.2223496 9.567911,2.220689 9.5613297,2.2191808 C 9.5152915,2.2086843 9.4688419,2.198622 9.4224151,2.1891844 C 9.3834989,2.1812777 9.3444228,2.173851 9.3052324,2.1666908 C 9.2840871,2.1628289 9.2631398,2.1590736 9.2419184,2.1554402 C 9.2040153,2.1489428 9.1657008,2.1424834 9.1275692,2.1366943 C 9.0812567,2.1296637 9.0352946,2.1239127 8.988647,2.1179408 C 8.9798492,2.1168135 8.9709904,2.1152824 8.9621849,2.1142008 C 8.9199324,2.108983 8.8771314,2.1044737 8.8346123,2.1001395 C 8.8276883,2.0994235 8.8207491,2.0989436 8.8138174,2.098258 C 8.7681524,2.0937639 8.722754,2.089544 8.6767919,2.0860782 C 8.6437486,2.0835721 8.6107585,2.081485 8.5775629,2.0795121 C 8.5677595,2.0789332 8.5580781,2.0781715 8.5482672,2.0776383 C 8.5252785,2.0763815 8.5023279,2.0748809 8.4792783,2.0738907 C 8.4481393,2.07255 8.4169926,2.0719407 8.3857241,2.0710723 C 8.3806739,2.0709352 8.375677,2.0702649 8.370604,2.0701354 C 8.3192337,2.0688481 8.2673071,2.0682616 8.2156245,2.0682616 C 8.1637819,2.0682616 8.1121603,2.0688405 8.0606376,2.0701354 C 8.055557,2.0702649 8.0505906,2.0709352 8.0455175,2.0710723 C 8.0142414,2.0719407 7.9831023,2.07255 7.9519633,2.0738907 C 7.9289061,2.0748809 7.9059707,2.0763815 7.8829821,2.0776383 C 7.8732245,2.0781715 7.8634288,2.0789332 7.8536788,2.0795121 C 7.8204831,2.081485 7.7875007,2.0835721 7.7544573,2.0860782 C 7.7086933,2.0895363 7.6628988,2.0937791 7.6174318,2.098258 C 7.6104926,2.0989436 7.6035686,2.0994235 7.5966369,2.1001395 C 7.5541178,2.1044737 7.5113092,2.108983 7.4690643,2.1142008 C 7.4637095,2.1148559 7.4583393,2.1153967 7.4529921,2.116067 C 7.4507907,2.1163488 7.4485817,2.1167297 7.4463804,2.1170039 C 7.4451007,2.1171715 7.4438895,2.1177809 7.4426022,2.1179408 C 7.3959546,2.1239127 7.3499925,2.1296637 7.30368,2.1366943 C 7.2655484,2.1424834 7.2272264,2.1489428 7.1893309,2.1554402 C 7.178027,2.157375 7.166586,2.1590584 7.1553125,2.1610693 C 7.1454864,2.162806 7.1358202,2.1649008 7.1260169,2.1666908 C 7.0868265,2.173851 7.0477503,2.1812777 7.0088265,2.1891844 C 6.9624074,2.198622 6.9159578,2.2086843 6.8699119,2.2191808 C 6.8632926,2.2206966 6.8566961,2.2223343 6.8500768,2.2238654 C 6.8079385,2.2336306 6.7661735,2.2432359 6.7243856,2.2538695 C 6.7224585,2.254357 6.720638,2.2552482 6.7187108,2.2557433 C 6.7149175,2.2567183 6.7111622,2.257579 6.7073688,2.258554 C 6.663372,2.2698884 6.6196189,2.2818778 6.5760181,2.2941796 C 6.5513918,2.3011189 6.5268035,2.3084847 6.5023067,2.3157362 C 6.4681969,2.3258366 6.4340948,2.3359979 6.400244,2.3466696 C 6.3715272,2.3557264 6.3427724,2.3643796 6.314246,2.3738553 C 6.3088302,2.375653 6.3035896,2.3776716 6.2981814,2.3794768 C 6.2906404,2.3820057 6.2830232,2.3844204 6.275505,2.3869798 C 6.2436195,2.3978038 6.2116806,2.4093819 6.1800541,2.4207239 C 6.1581471,2.4285772 6.1366361,2.4370018 6.1148434,2.4450989 C 6.0921518,2.4535311 6.0693688,2.4617043 6.0468067,2.4704184 C 6.0367292,2.4743031 6.0266059,2.4777309 6.0165665,2.4816689 C 5.9791814,2.4963168 5.9420628,2.5112922 5.9050585,2.526656 C 5.8978222,2.5296648 5.8905402,2.5330088 5.8833191,2.5360328 C 5.8433822,2.5528058 5.8037348,2.5699902 5.7642397,2.5875935 C 5.7531567,2.5925371 5.742226,2.5975873 5.7311735,2.6025917 C 5.7251559,2.6053187 5.7192221,2.6082818 5.7132198,2.6110316 C 5.6814714,2.6255347 5.6501495,2.6400454 5.6187134,2.6550817 C 5.5821661,2.6725632 5.5452152,2.6903265 5.5090945,2.7085163 C 5.4957949,2.7152118 5.4826476,2.7223491 5.4694014,2.729136 C 5.4424137,2.7429764 5.4158145,2.7570835 5.3890782,2.77132 C 5.3794272,2.7764616 5.3694106,2.7811385 5.3597749,2.7863258 C 5.3225344,2.8064047 5.2859796,2.827352 5.2492114,2.848185 C 5.2333525,2.8571732 5.217722,2.8662529 5.201962,2.8753707 C 5.1709753,2.8933092 5.1399734,2.9112781 5.1093447,2.9297421 C 5.0680824,2.9546275 5.027102,2.9798404 4.9864948,3.0056702 C 4.9849561,3.0066605 4.9833108,3.007506 4.9817721,3.0084886 L 4.0462068,1.9726507 z M 8.2156245,2.7853889 C 11.12494,2.7853889 13.485985,5.1274214 13.485992,8.0133208 C 13.485992,10.899205 11.12494,13.241245 8.2156245,13.241245 C 8.1701651,13.241245 8.124721,13.240514 8.0795435,13.239371 C 8.0343584,13.238236 7.9893027,13.236941 7.944407,13.234679 C 5.160913,13.094584 2.9452572,10.809017 2.9452572,8.0133208 C 2.9452572,7.9682271 2.9460037,7.9231486 2.9471463,7.8783291 C 3.0193419,5.0546926 5.3517692,2.7853889 8.2156245,2.7853889 z"
         style="fill:url(#radialGradient4351);fill-opacity:1;stroke:#000000;stroke-width:0.20273256;stroke-linecap:round;stroke-linejoin:miter;stroke-miterlimit:4;stroke-dasharray:none;stroke-dashoffset:0;stroke-opacity:1" />
      <path
         id="path4269"
         d="M 8.258692,2.8282356 C 5.3493774,2.8282356 2.9883248,5.1702757 2.9883248,8.0561675 C 2.9883248,8.067121 2.9882638,8.0780364 2.9883248,8.0889747 C 3.9525688,8.5533106 5.0935695,8.8220296 6.3157314,8.8220296 C 9.3754857,8.8220296 11.925125,7.1382207 12.471581,4.9149096 C 11.509501,3.6478597 9.9798027,2.8282356 8.258692,2.8282356 z"
         style="fill:#ffffff;fill-opacity:0.54976304;stroke:none;stroke-width:5.92000008;stroke-linecap:round;stroke-linejoin:miter;stroke-miterlimit:4;stroke-dasharray:none;stroke-dashoffset:0;stroke-opacity:1" />
      <rect
         y="8.1582909"
         x="3.3144436"
         height="0.66650355"
         width="1.0473627"
         id="rect3170"
         style="fill:#000000;fill-opacity:1" />
      <rect
         style="fill:#000000;fill-opacity:1"
         id="rect3174"
         width="1.0473627"
         height="0.66650355"
         x="12.026597"
         y="8.1582909" />
      <rect
         transform="matrix(0,1,-1,0,0,0)"
         y="-8.7892942"
         x="11.919275"
         height="0.66650355"
         width="1.0473627"
         id="rect3176"
         style="fill:#000000;fill-opacity:1" />
      <rect
         style="fill:#000000;fill-opacity:1"
         id="rect3178"
         width="1.0473627"
         height="0.66650355"
         x="2.9690847"
         y="-8.7892942"
         transform="matrix(0,1,-1,0,0,0)" />
      <path
         inkscape:transform-center-y="-2.3784858"
         inkscape:transform-center-x="1.9868645"
         id="path4311"
         d="M 8.5284257,3.860256 L 8.5284257,8.5747314 L 4.5961966,8.5747314"
         style="opacity:0.90000006;fill:none;fill-rule:evenodd;stroke:#000000;stroke-width:0.26384389;stroke-linecap:round;stroke-linejoin:miter;stroke-miterlimit:4;stroke-dasharray:none;stroke-opacity:1" />
    </g>
  </g>
</svg>
