<?xml version="1.0" encoding="UTF-8" standalone="no"?>
<!-- Created with Inkscape (http://www.inkscape.org/) -->
<svg
   xmlns:dc="http://purl.org/dc/elements/1.1/"
   xmlns:cc="http://creativecommons.org/ns#"
   xmlns:rdf="http://www.w3.org/1999/02/22-rdf-syntax-ns#"
   xmlns:svg="http://www.w3.org/2000/svg"
   xmlns="http://www.w3.org/2000/svg"
   xmlns:sodipodi="http://sodipodi.sourceforge.net/DTD/sodipodi-0.dtd"
   xmlns:inkscape="http://www.inkscape.org/namespaces/inkscape"
   width="16"
   height="16"
   id="svg3166"
   sodipodi:version="0.32"
   inkscape:version="0.46"
   version="1.0"
   sodipodi:docname="twiteroff.svg"
   inkscape:output_extension="org.inkscape.output.svg.inkscape">
  <defs
     id="defs3168" />
  <sodipodi:namedview
     id="base"
     pagecolor="#ffffff"
     bordercolor="#666666"
     borderopacity="1.0"
     inkscape:pageopacity="0.0"
     inkscape:pageshadow="2"
     inkscape:zoom="22.627417"
     inkscape:cx="6.5104931"
     inkscape:cy="6.8536127"
     inkscape:document-units="px"
     inkscape:current-layer="layer1"
     showgrid="false"
     inkscape:window-width="1440"
     inkscape:window-height="790"
     inkscape:window-x="-8"
     inkscape:window-y="-8" />
  <metadata
     id="metadata3171">
    <rdf:RDF>
      <cc:Work
         rdf:about="">
        <dc:format>image/svg+xml</dc:format>
        <dc:type
           rdf:resource="http://purl.org/dc/dcmitype/StillImage" />
      </cc:Work>
    </rdf:RDF>
  </metadata>
  <g
     inkscape:label="Camada 1"
     inkscape:groupmode="layer"
     id="layer1">
    <path
       style="fill:#949494;fill-opacity:1;fill-rule:evenodd;stroke:none;stroke-width:5.54462767;stroke-linecap:round;stroke-linejoin:round;stroke-miterlimit:4;stroke-dasharray:none;stroke-opacity:1"
       d="M 4.65625 0.25 C 3.2293212 0.40701877 2.1582235 1.6272566 2.1875 3.0625 C 2.1875001 6.344825 2.1875 9.1393976 2.1875 10.6875 C 2.1875004 12.72677 3.0486014 13.345463 4.03125 14.21875 C 5.0138986 15.092037 6.4581503 15.84375 8.21875 15.84375 C 10.629608 15.84375 9.740872 15.84375 11.5 15.84375 C 12.534917 15.917251 13.52265 15.417262 14.0625 14.53125 C 14.602351 13.645239 14.602351 12.511011 14.0625 11.625 C 13.52265 10.738988 12.534917 10.238999 11.5 10.3125 C 9.740873 10.3125 10.629609 10.3125 8.21875 10.3125 C 8.0716221 10.3125 7.9036347 10.222276 7.75 10.09375 C 7.75 9.9014252 7.75 9.465038 7.75 9.25 L 11.46875 9.25 C 13.004792 9.25 14.25 8.004792 14.25 6.46875 C 14.25 4.932708 13.004792 3.6875 11.46875 3.6875 L 7.75 3.6875 C 7.75 3.4284546 7.75 3.331543 7.75 3.0625 C 7.7669553 2.2610701 7.4368928 1.4767208 6.84375 0.9375 C 6.2506072 0.3982793 5.4524424 0.15696747 4.65625 0.25 z "
       id="path4368" />
    <path
       style="fill:#cdcdcd;fill-opacity:1;fill-rule:evenodd;stroke:none;stroke-width:3.26154566;stroke-linecap:round;stroke-linejoin:round;stroke-miterlimit:4;stroke-dasharray:none;stroke-opacity:1"
       d="M 4.78125 1.40625 C 3.9470155 1.5056804 3.3248055 2.2225746 3.34375 3.0625 C 3.3437501 6.3448248 3.34375 9.1393976 3.34375 10.6875 C 3.3437503 12.038009 3.9680048 12.652263 4.78125 13.375 C 5.5944952 14.097737 6.7886586 14.71875 8.21875 14.71875 C 10.629609 14.71875 9.7408722 14.71875 11.5 14.71875 C 12.406092 14.71875 13.125 13.968592 13.125 13.0625 C 13.125 12.156408 12.406092 11.4375 11.5 11.4375 C 9.7408728 11.4375 10.629609 11.4375 8.21875 11.4375 C 7.7329683 11.4375 7.2979853 11.230094 6.96875 10.9375 C 6.7218235 10.718055 6.6220542 10.352417 6.59375 10.4375 C 6.59375 9.9367759 6.59375 8.8032741 6.59375 8.09375 L 11.46875 8.09375 C 12.082466 8.1462544 12.676973 7.8369595 13 7.3125 C 13.323028 6.7880405 13.323028 6.1494595 13 5.625 C 12.676973 5.1005405 12.082466 4.7912456 11.46875 4.84375 L 6.59375 4.84375 C 6.59375 4.1398851 6.59375 3.8292726 6.59375 3.0625 C 6.6039881 2.5921899 6.4097698 2.1298327 6.0625 1.8125 C 5.7152302 1.4951672 5.2487349 1.3537689 4.78125 1.40625 z "
       id="path3713" />
    <path
       style="fill:#ffffff;fill-opacity:1;fill-rule:evenodd;stroke:none;stroke-width:5.54462767;stroke-linecap:round;stroke-linejoin:round;stroke-miterlimit:4;stroke-dasharray:none;stroke-opacity:1"
       d="M 11.843751,3.71875 L 12.093751,4.75 L 8.5625004,4.46875 L 7.6250004,4.40625 L 7.7187504,5.125 L 8.0937504,7.65625 L 4.1874999,6.65625 L 3.0312499,6.34375 L 3.1874999,7.28125 L 3.6249999,9.8750003 L 2.1874999,9.5937505 C 2.1874999,9.8648683 2.1874999,10.465436 2.1874999,10.6875 C 2.1874999,10.722189 2.1870052,10.747375 2.1874999,10.78125 L 4.3124999,11.21875 L 5.4374999,11.4375 L 5.2812499,10.59375 L 4.8437499,8.0625005 L 8.7500004,9.0625005 L 9.4687504,9.2500005 L 9.9375004,9.2500005 L 9.8125004,8.4375005 L 9.3750004,5.71875 L 12.968751,6 L 14.000001,6.0625 L 13.812501,5.3125 L 13.687501,4.78125 C 13.251222,4.2078092 12.592141,3.8199656 11.843751,3.71875 z"
       id="path3975" />
  </g>
</svg>
